<?xml version="1.0" encoding="UTF-8"?><svg id="Layer_2" xmlns="http://www.w3.org/2000/svg" viewBox="0 0 472.61 462.8"><defs><style>.cls-1{fill:#fff;}</style></defs><g id="Layer_1-2"><polygon class="cls-1" points="472.61 393.88 472.61 334.77 0 334.77 0 393.88 147.69 393.88 147.69 443.11 108.31 443.11 108.31 462.8 364.31 462.8 364.31 443.11 324.92 443.11 324.92 393.88 472.61 393.88"/><path class="cls-1" d="m384.63,49.26c-4.66,7.83-10.32,16.45-17.11,26.04-21.95,31.03-52.73,67.43-80.33,95.02-10.39,10.38-19.81,19.02-28.81,26.4-6.24,5.12-12.06,9.41-17.77,13.12-10.49,6.82-20.09,11.15-29.05,13.1-.8,9.45-4.03,18.85-9.58,27.53-10.74,16.78-35.6,44.91-81.54,44.91-10.4,0-21.41-1.49-32.71-4.42-8.49-2.22-14.73-9.56-15.57-18.27-.84-8.65,3.87-16.99,11.68-20.74,5.36-2.57,18.05-10.58,20.49-29.5,2.36-18.3,15.48-50.61,49.67-55.75,1.57-.24,3.13-.4,4.7-.47,2.23-8.16,6.33-16.85,12.29-26.02,3.53-5.44,7.94-11.41,13.1-17.73,7.44-9.07,16.07-18.48,26.4-28.82,11.66-11.66,29.26-27.87,48.92-44.4H0v265.81h472.61V49.26h-87.98Z"/><path class="cls-1" d="m229.9,193.33l-42.38-42.39c-13.47,20.74-13.23,33.29-7.04,42.18-6.43-5.43-14.86-8.25-23.52-6.95-28.62,4.31-33.08,38.8-33.08,38.8-3.7,28.76-23.78,41.03-31.5,44.74-.96.46-.72,1.94.31,2.2,53.59,13.9,80.9-13.57,92.71-32.04,6.34-9.91,8.81-22.19,4.62-33.18l-.19-.48c-1.03-2.67-2.47-5.09-4.11-7.34,8.99,7.59,21.85,8.97,44.18-5.53Z"/><path class="cls-1" d="m379.06,1.79c-13.48-13.48-100.68,51.86-154.61,105.79-10.24,10.24-18.44,19.27-25.07,27.36l46.54,46.55c8.1-6.64,17.13-14.86,27.36-25.09C327.2,102.47,392.54,15.27,379.06,1.79Z"/></g></svg>