<?xml version="1.0" encoding="UTF-8"?><svg id="Layer_2" xmlns="http://www.w3.org/2000/svg" viewBox="0 0 230.52 143.33"><defs><style>.cls-1{fill:#fff;}</style></defs><g id="Layer_1-2"><path class="cls-1" d="m82.83.16c10.77,18.87,21.52,37.71,32.49,56.92,11.52-19.08,22.28-38.18,33.48-57.08,1.5,1.76,80.94,141,81.72,143.28-.76,0-1.44,0-2.13,0-10.79,0-21.59-.05-32.38.05-1.92.02-2.97-.57-3.95-2.24-15.94-27.25-31.95-54.46-47.96-81.67-.4-.68-.67-1.45-1.43-2.05-.65.32-.87,1.02-1.21,1.58-3.92,6.6-7.77,13.24-11.76,19.78-.84,1.37-.77,2.31,0,3.66,11.13,19.41,22.2,38.86,33.28,58.3.42.74.81,1.51,1.23,2.29-.71.5-1.36.3-1.96.3-11.03.02-22.07-.03-33.1.05-1.67.01-2.53-.55-3.36-1.97-20.61-35.17-41.26-70.31-61.96-105.42-.85-1.44-.84-2.45,0-3.88,5.9-9.97,11.71-20,17.55-30.01.35-.6.59-1.29,1.43-1.89Z"/><path class="cls-1" d="m0,142.81c16.41-28.78,32.8-57.5,49.41-86.63,16.58,29.07,32.98,57.81,49.34,86.48-.16.25-.2.32-.25.38-.05.06-.11.15-.16.15-32.29.04-64.59.07-96.88.09-.38,0-.79.06-1.45-.48Z"/></g></svg>