<?xml version="1.0" encoding="UTF-8"?><svg id="Layer_2" xmlns="http://www.w3.org/2000/svg" xmlns:xlink="http://www.w3.org/1999/xlink" viewBox="0 0 3003.6 2095.27"><defs><style>.cls-1{fill:url(#linear-gradient-75);}.cls-2{fill:url(#linear-gradient-119);}.cls-3{fill:url(#linear-gradient-2);}.cls-4{fill:url(#linear-gradient-51);}.cls-5{fill:url(#linear-gradient-17);}.cls-6{fill:url(#linear-gradient-87);}.cls-7{fill:url(#linear-gradient-93);}.cls-8{fill:url(#linear-gradient-92);}.cls-9{fill:url(#linear-gradient-80);}.cls-10{fill:url(#linear-gradient-109);}.cls-11{fill:url(#linear-gradient-43);}.cls-12{fill:#0a0017;}.cls-13{fill:url(#linear-gradient-15);}.cls-14{fill:url(#linear-gradient-58);}.cls-15{fill:url(#linear-gradient-69);}.cls-16{fill:url(#linear-gradient-81);}.cls-17{fill:url(#linear-gradient-18);}.cls-18{fill:url(#linear-gradient-56);}.cls-19{fill:url(#linear-gradient-40);}.cls-20{fill:url(#linear-gradient-52);}.cls-21{fill:url(#linear-gradient-28);}.cls-22{fill:url(#linear-gradient-14);}.cls-23{fill:url(#linear-gradient-36);}.cls-24{fill:url(#linear-gradient-78);}.cls-25{fill:url(#linear-gradient-20);}.cls-26{fill:url(#linear-gradient-6);}.cls-27{fill:url(#linear-gradient-53);}.cls-28{opacity:.2;}.cls-29{fill:url(#linear-gradient-91);}.cls-30{fill:url(#linear-gradient-60);}.cls-31{fill:url(#linear-gradient-108);}.cls-32{fill:url(#linear-gradient-84);}.cls-33{fill:url(#linear-gradient-104);}.cls-34{fill:url(#linear-gradient-35);}.cls-35{fill:url(#linear-gradient-48);}.cls-36{fill:url(#linear-gradient-32);}.cls-37{fill:url(#linear-gradient-120);}.cls-38{fill:url(#linear-gradient-97);}.cls-39{fill:url(#linear-gradient-11);}.cls-40{fill:url(#linear-gradient-50);}.cls-41{fill:url(#linear-gradient-106);}.cls-42{fill:url(#linear-gradient-111);}.cls-43{fill:url(#linear-gradient-63);}.cls-44{fill:url(#linear-gradient-67);}.cls-45{fill:url(#linear-gradient-95);}.cls-46{fill:url(#linear-gradient-86);}.cls-47{fill:url(#linear-gradient-39);}.cls-48{fill:url(#linear-gradient-110);}.cls-49{fill:url(#linear-gradient-10);}.cls-50{fill:url(#linear-gradient-59);}.cls-51{fill:url(#linear-gradient-117);}.cls-52{fill:url(#linear-gradient-49);}.cls-53{fill:url(#linear-gradient-37);}.cls-54{fill:url(#linear-gradient-82);}.cls-55{fill:url(#linear-gradient-16);}.cls-56{fill:url(#linear-gradient-31);}.cls-57{fill:url(#linear-gradient-85);}.cls-58{fill:url(#linear-gradient-112);}.cls-59{fill:url(#linear-gradient-61);}.cls-60{fill:url(#linear-gradient-114);}.cls-61{fill:url(#linear-gradient-68);}.cls-62{fill:url(#linear-gradient-103);}.cls-63{fill:url(#linear-gradient-62);}.cls-64{fill:url(#linear-gradient-107);}.cls-65{fill:url(#linear-gradient-41);}.cls-66{fill:url(#linear-gradient-76);}.cls-67{fill:url(#linear-gradient-98);}.cls-68{fill:url(#linear-gradient-21);}.cls-69{fill:url(#linear-gradient-72);}.cls-70{fill:url(#linear-gradient-25);}.cls-71{fill:url(#linear-gradient-89);}.cls-72{fill:url(#linear-gradient-5);}.cls-73{fill:url(#linear-gradient-64);}.cls-74{fill:url(#linear-gradient-102);}.cls-75{fill:url(#linear-gradient-83);}.cls-76{fill:url(#linear-gradient-54);}.cls-77{fill:url(#linear-gradient-45);}.cls-78{fill:url(#linear-gradient-113);}.cls-79{fill:url(#linear-gradient-55);}.cls-80{clip-path:url(#clippath);}.cls-81{fill:url(#linear-gradient-34);}.cls-82{fill:url(#linear-gradient-118);}.cls-83{fill:url(#linear-gradient-65);}.cls-84{fill:url(#linear-gradient-70);}.cls-85{fill:none;}.cls-86{fill:url(#linear-gradient-79);}.cls-87{fill:url(#linear-gradient-88);}.cls-88{fill:url(#linear-gradient-7);}.cls-89{fill:url(#linear-gradient-66);}.cls-90{fill:url(#linear-gradient-96);}.cls-91{fill:url(#linear-gradient-24);}.cls-92{fill:url(#linear-gradient-73);}.cls-93{fill:url(#linear-gradient-100);}.cls-94{fill:url(#linear-gradient-105);}.cls-95{fill:url(#linear-gradient-9);}.cls-96{fill:url(#linear-gradient-22);}.cls-97{fill:url(#linear-gradient-74);}.cls-98{fill:url(#linear-gradient-42);}.cls-99{fill:url(#linear-gradient-99);}.cls-100{fill:url(#linear-gradient-3);}.cls-101{fill:url(#linear-gradient);}.cls-102{fill:url(#linear-gradient-27);}.cls-103{fill:url(#linear-gradient-116);}.cls-104{fill:url(#linear-gradient-33);}.cls-105{fill:url(#linear-gradient-38);}.cls-106{fill:url(#linear-gradient-94);}.cls-107{fill:url(#linear-gradient-29);}.cls-108{fill:url(#linear-gradient-30);}.cls-109{fill:url(#linear-gradient-23);}.cls-110{fill:url(#linear-gradient-19);}.cls-111{fill:url(#linear-gradient-71);}.cls-112{fill:url(#linear-gradient-4);}.cls-113{fill:url(#linear-gradient-77);}.cls-114{fill:url(#linear-gradient-115);}.cls-115{fill:url(#linear-gradient-8);}.cls-116{fill:url(#linear-gradient-90);}.cls-117{fill:url(#linear-gradient-44);}.cls-118{fill:url(#linear-gradient-57);}.cls-119{fill:url(#linear-gradient-47);}.cls-120{fill:url(#linear-gradient-46);}.cls-121{fill:url(#linear-gradient-12);}.cls-122{fill:url(#linear-gradient-13);}.cls-123{fill:url(#linear-gradient-26);}.cls-124{fill:url(#linear-gradient-101);}</style><clipPath id="clippath"><rect class="cls-85" width="3003.6" height="2095.27"/></clipPath><linearGradient id="linear-gradient" x1="37.73" y1="515.83" x2="2427.51" y2="1921.11" gradientUnits="userSpaceOnUse"><stop offset="0" stop-color="#00d4bc"/><stop offset=".21" stop-color="#15a6ff"/><stop offset=".39" stop-color="#d200d4"/><stop offset=".68" stop-color="#610094"/><stop offset="1" stop-color="#150010"/></linearGradient><linearGradient id="linear-gradient-2" x1="100.27" y1="409.47" x2="2490.06" y2="1814.75" xlink:href="#linear-gradient"/><linearGradient id="linear-gradient-3" x1="38" y1="515.33" x2="2427.79" y2="1920.6" xlink:href="#linear-gradient"/><linearGradient id="linear-gradient-4" x1="37.43" y1="516.33" x2="2427.22" y2="1921.6" gradientTransform="translate(1501.72 -361.35) rotate(60)" xlink:href="#linear-gradient"/><linearGradient id="linear-gradient-5" x1="38.32" y1="514.83" x2="2428.1" y2="1920.11" xlink:href="#linear-gradient"/><linearGradient id="linear-gradient-6" x1="-87.39" y1="728.61" x2="2302.39" y2="2133.89" xlink:href="#linear-gradient"/><linearGradient id="linear-gradient-7" x1="-90.3" y1="733.56" x2="2299.48" y2="2138.83" xlink:href="#linear-gradient"/><linearGradient id="linear-gradient-8" x1="-470.92" y1="1380.83" x2="1918.87" y2="2786.1" xlink:href="#linear-gradient"/><linearGradient id="linear-gradient-9" x1="-26.58" y1="625.19" x2="2363.2" y2="2030.47" xlink:href="#linear-gradient"/><linearGradient id="linear-gradient-10" x1="-26.29" y1="624.7" x2="2363.5" y2="2029.98" xlink:href="#linear-gradient"/><linearGradient id="linear-gradient-11" x1="-26.88" y1="625.69" x2="2362.91" y2="2030.97" gradientTransform="translate(1376.58 -144.59) rotate(60)" xlink:href="#linear-gradient"/><linearGradient id="linear-gradient-12" x1="163.41" y1="302.1" x2="2553.2" y2="1707.37" xlink:href="#linear-gradient"/><linearGradient id="linear-gradient-13" x1="163.7" y1="301.6" x2="2553.49" y2="1706.88" xlink:href="#linear-gradient"/><linearGradient id="linear-gradient-14" x1="163.12" y1="302.59" x2="2552.91" y2="1707.87" gradientTransform="translate(1126.32 -433.58) rotate(60)" xlink:href="#linear-gradient"/><linearGradient id="linear-gradient-15" x1="-24.25" y1="621.22" x2="2365.54" y2="2026.5" xlink:href="#linear-gradient"/><linearGradient id="linear-gradient-16" x1="-23.96" y1="620.73" x2="2365.83" y2="2026" xlink:href="#linear-gradient"/><linearGradient id="linear-gradient-17" x1="-24.53" y1="621.72" x2="2365.25" y2="2027" gradientTransform="translate(1877.16 -433.59) rotate(60)" xlink:href="#linear-gradient"/><linearGradient id="linear-gradient-18" x1="-89.14" y1="731.58" x2="2300.65" y2="2136.85" xlink:href="#linear-gradient"/><linearGradient id="linear-gradient-19" x1="-88.85" y1="731.08" x2="2300.94" y2="2136.36" xlink:href="#linear-gradient"/><linearGradient id="linear-gradient-20" x1="-89.43" y1="732.07" x2="2300.36" y2="2137.35" gradientTransform="translate(1626.88 -144.58) rotate(60)" xlink:href="#linear-gradient"/><linearGradient id="linear-gradient-21" x1="-152.28" y1="838.95" x2="2237.51" y2="2244.23" xlink:href="#linear-gradient"/><linearGradient id="linear-gradient-22" x1="-152.57" y1="839.45" x2="2237.21" y2="2244.72" gradientTransform="translate(1752.01 -72.34) rotate(60)" xlink:href="#linear-gradient"/><linearGradient id="linear-gradient-23" x1="-154.63" y1="842.96" x2="2235.15" y2="2248.23" xlink:href="#linear-gradient"/><linearGradient id="linear-gradient-24" x1="-154.35" y1="842.46" x2="2235.44" y2="2247.74" xlink:href="#linear-gradient"/><linearGradient id="linear-gradient-25" x1="-154.93" y1="843.45" x2="2234.86" y2="2248.73" gradientTransform="translate(1251.41 216.74) rotate(60)" xlink:href="#linear-gradient"/><linearGradient id="linear-gradient-26" x1="-218.36" y1="951.33" x2="2171.43" y2="2356.6" xlink:href="#linear-gradient"/><linearGradient id="linear-gradient-27" x1="-218.07" y1="950.83" x2="2171.72" y2="2356.11" xlink:href="#linear-gradient"/><linearGradient id="linear-gradient-28" x1="-218.65" y1="951.82" x2="2171.14" y2="2357.1" gradientTransform="translate(1251.41 361.24) rotate(60)" xlink:href="#linear-gradient"/><linearGradient id="linear-gradient-29" x1="-280.91" y1="1057.71" x2="2108.87" y2="2462.98" xlink:href="#linear-gradient"/><linearGradient id="linear-gradient-30" x1="-280.62" y1="1057.21" x2="2109.17" y2="2462.49" xlink:href="#linear-gradient"/><linearGradient id="linear-gradient-31" x1="-281.21" y1="1058.2" x2="2108.58" y2="2463.48" gradientTransform="translate(1501.69 361.24) rotate(60)" xlink:href="#linear-gradient"/><linearGradient id="linear-gradient-32" x1="-408.36" y1="1274.43" x2="1981.43" y2="2679.71" xlink:href="#linear-gradient"/><linearGradient id="linear-gradient-33" x1="-408.07" y1="1273.94" x2="1981.72" y2="2679.22" xlink:href="#linear-gradient"/><linearGradient id="linear-gradient-34" x1="-408.65" y1="1274.93" x2="1981.14" y2="2680.21" gradientTransform="translate(1501.68 650.24) rotate(60)" xlink:href="#linear-gradient"/><linearGradient id="linear-gradient-35" x1="-534.65" y1="1489.2" x2="1855.14" y2="2894.47" xlink:href="#linear-gradient"/><linearGradient id="linear-gradient-36" x1="229.47" y1="189.75" x2="2619.26" y2="1595.03" xlink:href="#linear-gradient"/><linearGradient id="linear-gradient-37" x1="-472.08" y1="1382.8" x2="1917.71" y2="2788.08" xlink:href="#linear-gradient"/><linearGradient id="linear-gradient-38" x1="-471.79" y1="1382.31" x2="1918" y2="2787.58" xlink:href="#linear-gradient"/><linearGradient id="linear-gradient-39" x1="-472.37" y1="1383.3" x2="1917.41" y2="2788.57" gradientTransform="translate(1501.68 794.74) rotate(60)" xlink:href="#linear-gradient"/><linearGradient id="linear-gradient-40" x1="-215.43" y1="946.34" x2="2174.36" y2="2351.62" xlink:href="#linear-gradient"/><linearGradient id="linear-gradient-41" x1="-215.14" y1="945.85" x2="2174.65" y2="2351.13" xlink:href="#linear-gradient"/><linearGradient id="linear-gradient-42" x1="-279.15" y1="1054.71" x2="2110.64" y2="2459.99" xlink:href="#linear-gradient"/><linearGradient id="linear-gradient-43" x1="-86.78" y1="727.57" x2="2303" y2="2132.85" xlink:href="#linear-gradient"/><linearGradient id="linear-gradient-44" x1="164.58" y1="300.11" x2="2554.36" y2="1705.39" xlink:href="#linear-gradient"/><linearGradient id="linear-gradient-45" x1="164.87" y1="299.61" x2="2554.65" y2="1704.89" xlink:href="#linear-gradient"/><linearGradient id="linear-gradient-46" x1="164.29" y1="300.61" x2="2554.07" y2="1705.88" gradientTransform="translate(1376.61 -578.08) rotate(60)" xlink:href="#linear-gradient"/><linearGradient id="linear-gradient-47" x1="-90.91" y1="734.59" x2="2298.88" y2="2139.86" xlink:href="#linear-gradient"/><linearGradient id="linear-gradient-48" x1="35.94" y1="518.86" x2="2425.73" y2="1924.14" xlink:href="#linear-gradient"/><linearGradient id="linear-gradient-49" x1="-122.42" y1="788.17" x2="2267.37" y2="2193.44" xlink:href="#linear-gradient"/><linearGradient id="linear-gradient-50" x1="-59.04" y1="680.4" x2="2330.74" y2="2085.68" gradientTransform="translate(652.62 -194.13) rotate(30.02)" xlink:href="#linear-gradient"/><linearGradient id="linear-gradient-51" x1="-154.63" y1="842.95" x2="2235.16" y2="2248.23" xlink:href="#linear-gradient"/><linearGradient id="linear-gradient-52" x1="-344.63" y1="1166.06" x2="2045.15" y2="2571.34" xlink:href="#linear-gradient"/><linearGradient id="linear-gradient-53" x1="-26.01" y1="624.22" x2="2363.77" y2="2029.5" xlink:href="#linear-gradient"/><linearGradient id="linear-gradient-54" x1="-213.67" y1="943.35" x2="2176.12" y2="2348.62" xlink:href="#linear-gradient"/><linearGradient id="linear-gradient-55" x1="-26.6" y1="625.22" x2="2363.19" y2="2030.5" xlink:href="#linear-gradient"/><linearGradient id="linear-gradient-56" x1="-58.11" y1="678.81" x2="2331.68" y2="2084.08" xlink:href="#linear-gradient"/><linearGradient id="linear-gradient-57" x1="5.26" y1="571.04" x2="2395.05" y2="1976.32" gradientTransform="translate(686.2 -319.35) rotate(30.02)" xlink:href="#linear-gradient"/><linearGradient id="linear-gradient-58" x1="99.08" y1="411.49" x2="2488.87" y2="1816.77" xlink:href="#linear-gradient"/><linearGradient id="linear-gradient-59" x1="67.58" y1="465.07" x2="2457.36" y2="1870.35" xlink:href="#linear-gradient"/><linearGradient id="linear-gradient-60" x1="130.95" y1="357.31" x2="2520.73" y2="1762.58" gradientTransform="translate(488.74 -305.22) rotate(30.02)" xlink:href="#linear-gradient"/><linearGradient id="linear-gradient-61" x1="-281.5" y1="1058.7" x2="2108.29" y2="2463.98" xlink:href="#linear-gradient"/><linearGradient id="linear-gradient-62" x1="-313" y1="1112.28" x2="2076.78" y2="2517.56" xlink:href="#linear-gradient"/><linearGradient id="linear-gradient-63" x1="-249.64" y1="1004.52" x2="2140.15" y2="2409.79" gradientTransform="translate(763.64 -30.13) rotate(30.02)" xlink:href="#linear-gradient"/><linearGradient id="linear-gradient-64" x1="-153.47" y1="840.97" x2="2236.32" y2="2246.25" xlink:href="#linear-gradient"/><linearGradient id="linear-gradient-65" x1="-184.97" y1="894.55" x2="2204.81" y2="2299.83" xlink:href="#linear-gradient"/><linearGradient id="linear-gradient-66" x1="-121.6" y1="786.78" x2="2268.18" y2="2192.06" gradientTransform="translate(777.94 -227.66) rotate(30.02)" xlink:href="#linear-gradient"/><linearGradient id="linear-gradient-67" x1="-216.6" y1="948.35" x2="2173.18" y2="2353.62" xlink:href="#linear-gradient"/><linearGradient id="linear-gradient-68" x1="-184.74" y1="894.16" x2="2205.04" y2="2299.44" gradientTransform="translate(850.24 -208.27) rotate(30.02)" xlink:href="#linear-gradient"/><linearGradient id="linear-gradient-69" x1="38.31" y1="514.84" x2="2428.1" y2="1920.12" xlink:href="#linear-gradient"/><linearGradient id="linear-gradient-70" x1="6.8" y1="568.42" x2="2396.58" y2="1973.69" xlink:href="#linear-gradient"/><linearGradient id="linear-gradient-71" x1="70.17" y1="460.65" x2="2459.96" y2="1865.93" gradientTransform="translate(772.81 -497.55) rotate(30.02)" xlink:href="#linear-gradient"/><linearGradient id="linear-gradient-72" x1="38.9" y1="513.85" x2="2428.68" y2="1919.12" xlink:href="#linear-gradient"/><linearGradient id="linear-gradient-73" x1="7.39" y1="567.42" x2="2397.17" y2="1972.7" xlink:href="#linear-gradient"/><linearGradient id="linear-gradient-74" x1="70.75" y1="459.66" x2="2460.54" y2="1864.94" gradientTransform="translate(825.66 -550.44) rotate(30.02)" xlink:href="#linear-gradient"/><linearGradient id="linear-gradient-75" x1="-87.97" y1="729.59" x2="2301.82" y2="2134.87" xlink:href="#linear-gradient"/><linearGradient id="linear-gradient-76" x1="-119.48" y1="783.17" x2="2270.31" y2="2188.45" xlink:href="#linear-gradient"/><linearGradient id="linear-gradient-77" x1="-56.11" y1="675.41" x2="2333.67" y2="2080.68" gradientTransform="translate(917.42 -458.77) rotate(30.02)" xlink:href="#linear-gradient"/><linearGradient id="linear-gradient-78" x1="-29.53" y1="630.21" x2="2360.25" y2="2035.49" xlink:href="#linear-gradient"/><linearGradient id="linear-gradient-79" x1="-61.04" y1="683.79" x2="2328.74" y2="2089.07" xlink:href="#linear-gradient"/><linearGradient id="linear-gradient-80" x1="2.33" y1="576.03" x2="2392.11" y2="1981.3" gradientTransform="translate(421.57 -54.75) rotate(30.02)" xlink:href="#linear-gradient"/><linearGradient id="linear-gradient-81" x1="-86.79" y1="727.59" x2="2302.99" y2="2132.86" xlink:href="#linear-gradient"/><linearGradient id="linear-gradient-82" x1="-118.3" y1="781.17" x2="2271.48" y2="2186.44" xlink:href="#linear-gradient"/><linearGradient id="linear-gradient-83" x1="-54.93" y1="673.4" x2="2334.86" y2="2078.68" gradientTransform="translate(1023.19 -564.59) rotate(30.02)" xlink:href="#linear-gradient"/><linearGradient id="linear-gradient-84" x1="-213.08" y1="942.35" x2="2176.71" y2="2347.63" xlink:href="#linear-gradient"/><linearGradient id="linear-gradient-85" x1="-156.4" y1="845.96" x2="2233.39" y2="2251.24" xlink:href="#linear-gradient"/><linearGradient id="linear-gradient-86" x1="-86.21" y1="726.59" x2="2303.58" y2="2131.87" xlink:href="#linear-gradient"/><linearGradient id="linear-gradient-87" x1="-117.72" y1="780.17" x2="2272.07" y2="2185.45" xlink:href="#linear-gradient"/><linearGradient id="linear-gradient-88" x1="-54.35" y1="672.41" x2="2335.44" y2="2077.69" gradientTransform="translate(1076.24 -617.54) rotate(30.02)" xlink:href="#linear-gradient"/><linearGradient id="linear-gradient-89" x1="-85.05" y1="724.62" x2="2304.74" y2="2129.9" xlink:href="#linear-gradient"/><linearGradient id="linear-gradient-90" x1="166.93" y1="296.11" x2="2556.72" y2="1701.39" xlink:href="#linear-gradient"/><linearGradient id="linear-gradient-91" x1="135.42" y1="349.69" x2="2525.21" y2="1754.97" xlink:href="#linear-gradient"/><linearGradient id="linear-gradient-92" x1="198.79" y1="241.93" x2="2588.58" y2="1647.21" gradientTransform="translate(839.96 -748.01) rotate(30.02)" xlink:href="#linear-gradient"/><linearGradient id="linear-gradient-93" x1="167.51" y1="295.12" x2="2557.3" y2="1700.4" xlink:href="#linear-gradient"/><linearGradient id="linear-gradient-94" x1="136" y1="348.7" x2="2525.79" y2="1753.98" xlink:href="#linear-gradient"/><linearGradient id="linear-gradient-95" x1="199.38" y1="240.94" x2="2589.16" y2="1646.21" gradientTransform="translate(892.91 -800.93) rotate(30.02)" xlink:href="#linear-gradient"/><linearGradient id="linear-gradient-96" x1="40.65" y1="510.86" x2="2430.43" y2="1916.14" xlink:href="#linear-gradient"/><linearGradient id="linear-gradient-97" x1="9.14" y1="564.44" x2="2398.92" y2="1969.72" xlink:href="#linear-gradient"/><linearGradient id="linear-gradient-98" x1="72.51" y1="456.68" x2="2462.3" y2="1861.96" gradientTransform="translate(984.57 -709.23) rotate(30.02)" xlink:href="#linear-gradient"/><linearGradient id="linear-gradient-99" x1="41.83" y1="508.86" x2="2431.61" y2="1914.14" xlink:href="#linear-gradient"/><linearGradient id="linear-gradient-100" x1="10.32" y1="562.44" x2="2400.1" y2="1967.72" xlink:href="#linear-gradient"/><linearGradient id="linear-gradient-101" x1="73.69" y1="454.68" x2="2463.47" y2="1859.95" gradientTransform="translate(1090.33 -815.02) rotate(30.02)" xlink:href="#linear-gradient"/><linearGradient id="linear-gradient-102" x1="-84.47" y1="723.63" x2="2305.32" y2="2128.91" xlink:href="#linear-gradient"/><linearGradient id="linear-gradient-103" x1="42.41" y1="507.87" x2="2432.2" y2="1913.15" xlink:href="#linear-gradient"/><linearGradient id="linear-gradient-104" x1="10.91" y1="561.45" x2="2400.7" y2="1966.73" xlink:href="#linear-gradient"/><linearGradient id="linear-gradient-105" x1="74.27" y1="453.68" x2="2464.05" y2="1858.96" gradientTransform="translate(1143.39 -868) rotate(30.02)" xlink:href="#linear-gradient"/><linearGradient id="linear-gradient-106" x1="-279.74" y1="1055.71" x2="2110.05" y2="2460.98" xlink:href="#linear-gradient"/><linearGradient id="linear-gradient-107" x1="-311.24" y1="1109.29" x2="2078.54" y2="2514.56" xlink:href="#linear-gradient"/><linearGradient id="linear-gradient-108" x1="-279.15" y1="1054.71" x2="2110.63" y2="2459.99" xlink:href="#linear-gradient"/><linearGradient id="linear-gradient-109" x1="-408.38" y1="1274.48" x2="1981.41" y2="2679.75" xlink:href="#linear-gradient"/><linearGradient id="linear-gradient-110" x1="-28.37" y1="628.23" x2="2361.42" y2="2033.5" xlink:href="#linear-gradient"/><linearGradient id="linear-gradient-111" x1="-59.87" y1="681.81" x2="2329.92" y2="2087.09" xlink:href="#linear-gradient"/><linearGradient id="linear-gradient-112" x1="3.5" y1="574.04" x2="2393.29" y2="1979.32" gradientTransform="translate(527.46 -160.59) rotate(30.02)" xlink:href="#linear-gradient"/><linearGradient id="linear-gradient-113" x1="-28.95" y1="629.22" x2="2360.84" y2="2034.5" xlink:href="#linear-gradient"/><linearGradient id="linear-gradient-114" x1="-60.46" y1="682.8" x2="2329.34" y2="2088.08" xlink:href="#linear-gradient"/><linearGradient id="linear-gradient-115" x1="-405.65" y1="1269.83" x2="1984.13" y2="2675.11" xlink:href="#linear-gradient"/><linearGradient id="linear-gradient-116" x1="226.32" y1="195.11" x2="2616.11" y2="1600.38" xlink:href="#linear-gradient"/><linearGradient id="linear-gradient-117" x1="76.38" y1="450.09" x2="2466.18" y2="1855.37" xlink:href="#linear-gradient"/><linearGradient id="linear-gradient-118" x1="39.78" y1="512.34" x2="2429.57" y2="1917.62" gradientTransform="translate(2002.82 -650.28) rotate(60.01)" xlink:href="#linear-gradient"/><linearGradient id="linear-gradient-119" x1="43.3" y1="506.36" x2="2433.09" y2="1911.64" gradientTransform="translate(2753.84 -1083.78) rotate(60.01)" xlink:href="#linear-gradient"/><linearGradient id="linear-gradient-120" x1="33.31" y1="523.35" x2="2423.09" y2="1928.63" gradientTransform="translate(625.8 144.63) rotate(60.01)" xlink:href="#linear-gradient"/></defs><g id="Layer_1-2"><g class="cls-80"><rect class="cls-12" width="3003.6" height="2095.27"/><g class="cls-28"><path class="cls-101" d="m1126.37,1301.07l-.25-.14-125.39-72.4v-145.08l.25-.14,125.39-72.4.25.14,125.39,72.4v145.08l-.25.14-125.39,72.4Zm-124.64-73.12l124.64,71.96,124.64-71.96v-143.93l-124.64-71.96-124.64,71.96v143.93Z"/><path class="cls-3" d="m1001.22,1084.35l-.25-.14-125.39-72.4v-145.08l.25-.14,125.39-72.4.25.14,125.39,72.4v145.08l-.25.14-125.39,72.4Zm-124.64-73.12l124.64,71.96,124.64-71.96v-143.93l-124.64-71.96-124.64,71.96v143.93Z"/><polygon class="cls-100" points="1126.87 1300.49 1125.87 1300.49 1125.87 1155.7 1126.12 1155.56 1251.26 1083.31 1251.76 1084.17 1126.87 1156.28 1126.87 1300.49"/><rect class="cls-112" x="1063.3" y="1047.61" width="1" height="144.5" transform="translate(-437.94 1481.2) rotate(-60)"/><path class="cls-72" d="m1251.51,1373.31l-.25-.14-125.39-72.4v-145.08l.25-.14,125.39-72.4.25.14,125.39,72.4v145.08l-.25.14-125.39,72.4Zm-124.64-73.12l124.64,71.96,124.64-71.96v-143.93l-124.64-71.96-124.64,71.96v143.93Z"/><path class="cls-26" d="m1376.62,1734.58l-.25-.14-125.39-72.4v-145.08l.25-.14,125.39-72.4.25.14,125.39,72.4v145.08l-.25.14-125.39,72.4Zm-124.64-73.12l124.64,71.96,124.64-71.96v-143.93l-124.64-71.96-124.64,71.96v143.93Z"/><path class="cls-88" d="m750.94,1373.31l-.25-.14-125.39-72.4v-145.08l.25-.14,125.39-72.4.25.14,125.39,72.4v145.08l-.25.14-125.39,72.4Zm-124.64-73.12l124.64,71.96,124.64-71.96v-143.93l-124.64-71.96-124.64,71.96v143.93Z"/><path class="cls-115" d="m375.43,2023.59l-.25-.14-125.39-72.4v-145.08l.25-.14,125.39-72.4.25.14,125.39,72.4v145.08l-.25.14-125.39,72.4Zm-124.64-73.12l124.64,71.96,124.64-71.96v-143.93l-124.64-71.96-124.64,71.96v143.93Z"/><path class="cls-95" d="m876.08,1301.07l-.25-.14-125.39-72.4v-145.08l.25-.14,125.39-72.4.25.14,125.39,72.4v145.08l-.25.14-125.39,72.4Zm-124.64-73.12l124.64,71.96,124.64-71.96v-143.93l-124.64-71.96-124.64,71.96v143.93Z"/><polygon class="cls-49" points="876.58 1300.49 875.58 1300.49 875.58 1155.7 875.83 1155.56 1000.97 1083.31 1001.47 1084.17 876.58 1156.28 876.58 1300.49"/><rect class="cls-39" x="813.01" y="1047.61" width="1" height="144.5" transform="translate(-563.08 1264.44) rotate(-60)"/><path class="cls-121" d="m1001.22,939.84l-.25-.14-125.39-72.4v-145.08l.25-.14,125.39-72.4.25.14,125.39,72.4v145.08l-.25.14-125.39,72.4Zm-124.64-73.12l124.64,71.96,124.64-71.96v-143.93l-124.64-71.96-124.64,71.96v143.93Z"/><polygon class="cls-122" points="1001.72 939.26 1000.72 939.26 1000.72 794.47 1000.97 794.33 1126.12 722.07 1126.62 722.94 1001.72 795.05 1001.72 939.26"/><rect class="cls-22" x="938.15" y="686.38" width="1" height="144.5" transform="translate(-187.67 1192.22) rotate(-60)"/><path class="cls-13" d="m1376.66,1590.08l-.25-.14-125.39-72.4v-145.08l.25-.14,125.39-72.4.25.14,125.39,72.4v145.08l-.25.14-125.39,72.4Zm-124.64-73.12l124.64,71.96,124.64-71.96v-143.93l-124.64-71.96-124.64,71.96v143.93Z"/><polygon class="cls-55" points="1377.16 1589.5 1376.16 1589.5 1376.16 1444.71 1376.41 1444.57 1501.55 1372.31 1502.05 1373.18 1377.16 1445.29 1377.16 1589.5"/><rect class="cls-5" x="1313.58" y="1336.62" width="1" height="144.5" transform="translate(-563.08 1842.47) rotate(-60)"/><path class="cls-17" d="m1001.22,1517.83l-.25-.14-125.39-72.4v-145.08l.25-.14,125.39-72.4.25.14,125.39,72.4v145.08l-.25.14-125.39,72.4Zm-124.64-73.12l124.64,71.96,124.64-71.96v-143.93l-124.64-71.96-124.64,71.96v143.93Z"/><polygon class="cls-110" points="1001.72 1517.25 1000.72 1517.25 1000.72 1372.46 1000.97 1372.31 1126.12 1300.06 1126.62 1300.93 1001.72 1373.04 1001.72 1517.25"/><rect class="cls-25" x="938.15" y="1264.37" width="1" height="144.5" transform="translate(-688.22 1481.21) rotate(-60)"/><path class="cls-68" d="m1001.22,1662.33l-.25-.14-125.39-72.4v-145.08l.25-.14,125.39-72.4.25.14,125.39,72.4v145.08l-.25.14-125.39,72.4Zm-124.64-73.12l124.64,71.96,124.64-71.96v-143.93l-124.64-71.96-124.64,71.96v143.93Z"/><rect class="cls-96" x="938.15" y="1408.87" width="1" height="144.5" transform="translate(-813.37 1553.45) rotate(-60)"/><path class="cls-109" d="m500.58,1373.32l-.25-.14-125.39-72.4v-145.08l.25-.14,125.39-72.4.25.14,125.39,72.4v145.08l-.25.14-125.39,72.4Zm-124.64-73.12l124.64,71.96,124.64-71.96v-143.93l-124.64-71.96-124.64,71.96v143.93Z"/><polygon class="cls-91" points="501.08 1372.75 500.08 1372.75 500.08 1227.95 500.33 1227.81 625.47 1155.56 625.97 1156.42 501.08 1228.53 501.08 1372.75"/><rect class="cls-70" x="437.51" y="1119.86" width="1" height="144.5" transform="translate(-813.4 975.39) rotate(-60)"/><path class="cls-123" d="m375.43,1445.58l-.25-.14-125.39-72.4v-145.08l.25-.14,125.39-72.4.25.14,125.39,72.4v145.08l-.25.14-125.39,72.4Zm-124.64-73.12l124.64,71.96,124.64-71.96v-143.93l-124.64-71.96-124.64,71.96v143.93Z"/><polygon class="cls-102" points="375.93 1445 374.93 1445 374.93 1300.21 375.18 1300.06 500.33 1227.81 500.83 1228.68 375.93 1300.78 375.93 1445"/><rect class="cls-21" x="312.36" y="1192.12" width="1" height="144.5" transform="translate(-938.55 903.13) rotate(-60)"/><path class="cls-107" d="m500.58,1662.33l-.25-.14-125.39-72.4v-145.08l.25-.14,125.39-72.4.25.14,125.39,72.4v145.08l-.25.14-125.39,72.4Zm-124.64-73.12l124.64,71.96,124.64-71.96v-143.93l-124.64-71.96-124.64,71.96v143.93Z"/><polygon class="cls-108" points="501.08 1661.76 500.08 1661.76 500.08 1516.96 500.33 1516.82 625.47 1444.57 625.97 1445.43 501.08 1517.54 501.08 1661.76"/><rect class="cls-56" x="437.51" y="1408.87" width="1" height="144.51" transform="translate(-1063.69 1119.88) rotate(-60)"/><path class="cls-36" d="m250.29,1806.82l-.25-.14-125.39-72.4v-145.08l.25-.14,125.39-72.4.25.14,125.39,72.4v145.08l-.25.14-125.39,72.4Zm-124.64-73.12l124.64,71.96,124.64-71.96v-143.93l-124.64-71.96-124.64,71.96v143.93Z"/><polygon class="cls-104" points="250.79 1806.24 249.79 1806.24 249.79 1661.45 250.04 1661.3 375.18 1589.05 375.68 1589.92 250.79 1662.03 250.79 1806.24"/><rect class="cls-81" x="187.22" y="1553.36" width="1" height="144.5" transform="translate(-1313.96 975.37) rotate(-60)"/><path class="cls-34" d="m250.29,2095.85l-.25-.14-125.39-72.4v-145.08l.25-.14,125.39-72.4.25.14,125.39,72.4v145.08l-.25.14-125.39,72.4Zm-124.64-73.12l124.64,71.96,124.64-71.96v-143.93l-124.64-71.96-124.64,71.96v143.93Z"/><path class="cls-23" d="m1626.95,1156.6l-.25-.14-125.39-72.4v-145.08l.25-.14,125.39-72.4.25.14,125.39,72.4v145.08l-.25.14-125.39,72.4Zm-124.64-73.12l124.64,71.96,124.64-71.96v-143.93l-124.64-71.96-124.64,71.96v143.93Z"/><path class="cls-53" d="m125.14,1879.07l-.25-.14L-.5,1806.53v-145.08l.25-.14,125.39-72.4.25.14,125.39,72.4v145.08l-.25.14-125.39,72.4ZM.5,1805.95l124.64,71.96,124.64-71.96v-143.93l-124.64-71.96L.5,1662.03v143.93Z"/><polygon class="cls-105" points="125.64 1878.49 124.64 1878.49 124.64 1733.7 124.89 1733.56 250.04 1661.3 250.54 1662.17 125.64 1734.28 125.64 1878.49"/><rect class="cls-47" x="62.07" y="1625.61" width="1" height="144.5" transform="translate(-1439.11 903.12) rotate(-60)"/><path class="cls-19" d="m1001.19,1806.84l-.25-.14-125.39-72.4v-145.08l.25-.14,125.39-72.4.25.14,125.39,72.4v145.08l-.25.14-125.39,72.4Zm-124.64-73.12l124.64,71.96,124.64-71.96v-143.93l-124.64-71.96-124.64,71.96v143.93Z"/><polygon class="cls-65" points="1001.69 1806.26 1000.69 1806.26 1000.69 1661.47 1000.94 1661.32 1126.08 1589.07 1126.58 1589.94 1001.69 1662.04 1001.69 1806.26"/><path class="cls-98" d="m876.05,1879.09l-.25-.14-125.39-72.4v-145.08l.25-.14,125.39-72.4.25.14,125.39,72.4v145.08l-.25.14-125.39,72.4Zm-124.64-73.12l124.64,71.96,124.64-71.96v-143.93l-124.64-71.96-124.64,71.96v143.93Z"/><path class="cls-11" d="m1501.87,1806.84l-.25-.14-125.39-72.4v-145.08l.25-.14,125.39-72.4.25.14,125.39,72.4v145.08l-.25.14-125.39,72.4Zm-124.64-73.12l124.64,71.96,124.64-71.96v-143.93l-124.64-71.96-124.64,71.96v143.93Z"/><path class="cls-117" d="m1251.51,1084.35l-.25-.14-125.39-72.4v-145.08l.25-.14,125.39-72.4.25.14,125.39,72.4v145.08l-.25.14-125.39,72.4Zm-124.64-73.12l124.64,71.96,124.64-71.96v-143.93l-124.64-71.96-124.64,71.96v143.93Z"/><polygon class="cls-77" points="1252.01 1083.77 1251.01 1083.77 1251.01 938.97 1251.26 938.83 1376.41 866.58 1376.91 867.44 1252.01 939.55 1252.01 1083.77"/><rect class="cls-120" x="1188.44" y="830.89" width="1" height="144.5" transform="translate(-187.67 1481.22) rotate(-60)"/></g><path class="cls-119" d="m625.72,1301.07l-.25-.14-125.39-72.4v-145.08l.25-.14,125.39-72.4.25.14,125.39,72.4v145.08l-.25.14-125.39,72.4Zm-124.64-73.12l124.64,71.96,124.64-71.96v-143.93l-124.64-71.96-124.64,71.96v143.93Z"/><path class="cls-35" d="m750.87,1084.35l-.25-.14-125.39-72.4v-145.08l.25-.14,125.39-72.4.25.14,125.39,72.4v145.08l-.25.14-125.39,72.4Zm-124.64-73.12l124.64,71.96,124.64-71.96v-143.93l-124.64-71.96-124.64,71.96v143.93Z"/><polygon class="cls-52" points="626.22 1300.49 625.22 1300.49 625.22 1156.28 500.33 1084.17 500.83 1083.31 626.22 1155.7 626.22 1300.49"/><rect class="cls-40" x="616.04" y="1119.36" width="144.5" height="1" transform="translate(-467.95 494.6) rotate(-30.02)"/><path class="cls-4" d="m500.58,1373.31l-.25-.14-125.39-72.4v-145.08l.25-.14,125.39-72.4.25.14,125.39,72.4v145.08l-.25.14-125.39,72.4Zm-124.64-73.12l124.64,71.96,124.64-71.96v-143.93l-124.64-71.96-124.64,71.96v143.93Z"/><path class="cls-20" d="m375.47,1734.58l-.25-.14-125.39-72.4v-145.08l.25-.14,125.39-72.4.25.14,125.39,72.4v145.08l-.25.14-125.39,72.4Zm-124.64-73.12l124.64,71.96,124.64-71.96v-143.93l-124.64-71.96-124.64,71.96v143.93Z"/><path class="cls-27" d="m1001.15,1373.31l-.25-.14-125.39-72.4v-145.08l.25-.14,125.39-72.4.25.14,125.39,72.4v145.08l-.25.14-125.39,72.4Zm-124.64-73.12l124.64,71.96,124.64-71.96v-143.93l-124.64-71.96-124.64,71.96v143.93Z"/><path class="cls-76" d="m1376.66,2023.59l-.25-.14-125.39-72.4v-145.08l.25-.14,125.39-72.4.25.14,125.39,72.4v145.08l-.25.14-125.39,72.4Zm-124.64-73.12l124.64,71.96,124.64-71.96v-143.93l-124.64-71.96-124.64,71.96v143.93Z"/><path class="cls-79" d="m876.01,1301.07l-.25-.14-125.39-72.4v-145.08l.25-.14,125.39-72.4.25.14,125.39,72.4v145.08l-.25.14-125.39,72.4Zm-124.64-73.12l124.64,71.96,124.64-71.96v-143.93l-124.64-71.96-124.64,71.96v143.93Z"/><polygon class="cls-18" points="876.51 1300.49 875.51 1300.49 875.51 1156.28 750.62 1084.17 751.12 1083.31 876.51 1155.7 876.51 1300.49"/><rect class="cls-118" x="866.33" y="1119.36" width="144.5" height="1" transform="translate(-434.37 619.82) rotate(-30.02)"/><path class="cls-14" d="m750.87,939.84l-.25-.14-125.39-72.4v-145.08l.25-.14,125.39-72.4.25.14,125.39,72.4v145.08l-.25.14-125.39,72.4Zm-124.64-73.12l124.64,71.96,124.64-71.96v-143.93l-124.64-71.96-124.64,71.96v143.93Z"/><polygon class="cls-50" points="751.37 939.26 750.37 939.26 750.37 795.05 625.47 722.94 625.97 722.07 751.37 794.47 751.37 939.26"/><rect class="cls-30" x="741.19" y="758.13" width="144.5" height="1" transform="translate(-270.44 508.8) rotate(-30.02)"/><path class="cls-59" d="m375.43,1590.08l-.25-.14-125.39-72.4v-145.08l.25-.14,125.39-72.4.25.14,125.39,72.4v145.08l-.25.14-125.39,72.4Zm-124.64-73.12l124.64,71.96,124.64-71.96v-143.93l-124.64-71.96-124.64,71.96v143.93Z"/><polygon class="cls-63" points="375.93 1589.5 374.93 1589.5 374.93 1445.29 250.04 1373.18 250.54 1372.31 375.93 1444.71 375.93 1589.5"/><rect class="cls-43" x="365.75" y="1408.37" width="144.5" height="1" transform="translate(-646.12 408.15) rotate(-30.02)"/><path class="cls-73" d="m750.87,1517.83l-.25-.14-125.39-72.4v-145.08l.25-.14,125.39-72.4.25.14,125.39,72.4v145.08l-.25.14-125.39,72.4Zm-124.64-73.12l124.64,71.96,124.64-71.96v-143.93l-124.64-71.96-124.64,71.96v143.93Z"/><polygon class="cls-83" points="751.37 1517.25 750.37 1517.25 750.37 1373.04 625.47 1300.93 625.97 1300.06 751.37 1372.46 751.37 1517.25"/><rect class="cls-89" x="741.19" y="1336.12" width="144.5" height="1" transform="translate(-559.64 586.36) rotate(-30.02)"/><path class="cls-44" d="m750.87,1662.33l-.25-.14-125.39-72.4v-145.08l.25-.14,125.39-72.4.25.14,125.39,72.4v145.08l-.25.14-125.39,72.4Zm-124.64-73.12l124.64,71.96,124.64-71.96v-143.93l-124.64-71.96-124.64,71.96v143.93Z"/><rect class="cls-61" x="741.19" y="1480.63" width="144.5" height="1" transform="translate(-631.94 605.75) rotate(-30.02)"/><path class="cls-15" d="m1251.51,1373.32l-.25-.14-125.39-72.4v-145.08l.25-.14,125.39-72.4.25.14,125.39,72.4v145.08l-.25.14-125.39,72.4Zm-124.64-73.12l124.64,71.96,124.64-71.96v-143.93l-124.64-71.96-124.64,71.96v143.93Z"/><polygon class="cls-84" points="1252.01 1372.75 1251.01 1372.75 1251.01 1228.53 1126.12 1156.42 1126.62 1155.56 1252.01 1227.95 1252.01 1372.75"/><rect class="cls-111" x="1241.83" y="1191.62" width="144.5" height="1" transform="translate(-420.16 817.47) rotate(-30.02)"/><path class="cls-69" d="m1376.66,1445.58l-.25-.14-125.39-72.4v-145.08l.25-.14,125.39-72.4.25.14,125.39,72.4v145.08l-.25.14-125.39,72.4Zm-124.64-73.12l124.64,71.96,124.64-71.96v-143.93l-124.64-71.96-124.64,71.96v143.93Z"/><polygon class="cls-92" points="1377.16 1445 1376.16 1445 1376.16 1300.78 1251.26 1228.68 1251.76 1227.81 1377.16 1300.21 1377.16 1445"/><rect class="cls-97" x="1366.98" y="1263.87" width="144.5" height="1" transform="translate(-439.5 889.69) rotate(-30.02)"/><path class="cls-1" d="m1251.51,1662.33l-.25-.14-125.39-72.4v-145.08l.25-.14,125.39-72.4.25.14,125.39,72.4v145.08l-.25.14-125.39,72.4Zm-124.64-73.12l124.64,71.96,124.64-71.96v-143.93l-124.64-71.96-124.64,71.96v143.93Z"/><polygon class="cls-66" points="1252.01 1661.76 1251.01 1661.76 1251.01 1517.54 1126.12 1445.43 1126.62 1444.57 1252.01 1516.96 1252.01 1661.76"/><rect class="cls-113" x="1241.83" y="1480.63" width="144.5" height="1" transform="translate(-564.77 856.25) rotate(-30.02)"/><path class="cls-24" d="m250.29,939.84l-.25-.14-125.39-72.4v-145.08l.25-.14,125.39-72.4.25.14,125.39,72.4v145.08l-.25.14-125.39,72.4Zm-124.64-73.12l124.64,71.96,124.64-71.96v-143.93l-124.64-71.96-124.64,71.96v143.93Z"/><polygon class="cls-86" points="250.79 939.26 249.79 939.26 249.79 795.05 124.89 722.94 125.39 722.07 250.79 794.47 250.79 939.26"/><rect class="cls-9" x="240.61" y="758.13" width="144.5" height="1" transform="translate(-337.61 258.34) rotate(-30.02)"/><path class="cls-16" d="m1501.8,1806.82l-.25-.14-125.39-72.4v-145.08l.25-.14,125.39-72.4.25.14,125.39,72.4v145.08l-.25.14-125.39,72.4Zm-124.64-73.12l124.64,71.96,124.64-71.96v-143.93l-124.64-71.96-124.64,71.96v143.93Z"/><polygon class="cls-54" points="1502.3 1806.24 1501.3 1806.24 1501.3 1662.03 1376.41 1589.92 1376.91 1589.05 1502.3 1661.45 1502.3 1806.24"/><rect class="cls-75" x="1492.12" y="1625.11" width="144.5" height="1" transform="translate(-603.45 1000.76) rotate(-30.02)"/><path class="cls-32" d="m1501.8,2095.85l-.25-.14-125.39-72.4v-145.08l.25-.14,125.39-72.4.25.14,125.39,72.4v145.08l-.25.14-125.39,72.4Zm-124.64-73.12l124.64,71.96,124.64-71.96v-143.93l-124.64-71.96-124.64,71.96v143.93Z"/><path class="cls-57" d="m125.14,1156.6l-.25-.14L-.5,1084.06v-145.08l.25-.14,125.39-72.4.25.14,125.39,72.4v145.08l-.25.14-125.39,72.4ZM.5,1083.48l124.64,71.96,124.64-71.96v-143.93l-124.64-71.96L.5,939.55v143.93Z"/><path class="cls-46" d="m1626.95,1879.07l-.25-.14-125.39-72.4v-145.08l.25-.14,125.39-72.4.25.14,125.39,72.4v145.08l-.25.14-125.39,72.4Zm-124.64-73.12l124.64,71.96,124.64-71.96v-143.93l-124.64-71.96-124.64,71.96v143.93Z"/><polygon class="cls-6" points="1627.45 1878.49 1626.45 1878.49 1626.45 1734.28 1501.55 1662.17 1502.05 1661.3 1627.45 1733.7 1627.45 1878.49"/><rect class="cls-87" x="1617.27" y="1697.36" width="144.5" height="1" transform="translate(-622.84 1073.18) rotate(-30.02)"/><path class="cls-71" d="m1877.2,2023.57l-.25-.14-125.39-72.4v-145.08l.25-.14,125.39-72.4.25.14,125.39,72.4v145.08l-.25.14-125.39,72.4Zm-124.64-73.12l124.64,71.96,124.64-71.96v-143.93l-124.64-71.96-124.64,71.96v143.93Z"/><path class="cls-116" d="m1752.06,1373.3l-.25-.14-125.39-72.4v-145.08l.25-.14,125.39-72.4.25.14,125.39,72.4v145.08l-.25.14-125.39,72.4Zm-124.64-73.12l124.64,71.96,124.64-71.96v-143.93l-124.64-71.96-124.64,71.96v143.93Z"/><polygon class="cls-29" points="1752.56 1372.73 1751.56 1372.73 1751.56 1228.51 1626.66 1156.4 1627.16 1155.54 1752.56 1227.93 1752.56 1372.73"/><rect class="cls-8" x="1742.38" y="1191.6" width="144.5" height="1" transform="translate(-352.99 1067.92) rotate(-30.02)"/><path class="cls-7" d="m1877.2,1445.56l-.25-.14-125.39-72.4v-145.08l.25-.14,125.39-72.4.25.14,125.39,72.4v145.08l-.25.14-125.39,72.4Zm-124.64-73.12l124.64,71.96,124.64-71.96v-143.93l-124.64-71.96-124.64,71.96v143.93Z"/><polygon class="cls-106" points="1877.7 1444.98 1876.7 1444.98 1876.7 1300.76 1751.81 1228.66 1752.31 1227.79 1877.7 1300.19 1877.7 1444.98"/><rect class="cls-45" x="1867.52" y="1263.85" width="144.5" height="1" transform="translate(-372.35 1140.23) rotate(-30.02)"/><path class="cls-90" d="m1752.06,1662.31l-.25-.14-125.39-72.4v-145.08l.25-.14,125.39-72.4.25.14,125.39,72.4v145.08l-.25.14-125.39,72.4Zm-124.64-73.12l124.64,71.96,124.64-71.96v-143.93l-124.64-71.96-124.64,71.96v143.93Z"/><polygon class="cls-38" points="1752.56 1661.74 1751.56 1661.74 1751.56 1517.52 1626.66 1445.41 1627.16 1444.55 1752.56 1516.94 1752.56 1661.74"/><rect class="cls-67" x="1742.38" y="1480.61" width="144.5" height="1" transform="translate(-497.59 1106.7) rotate(-30.02)"/><path class="cls-99" d="m2002.35,1806.8l-.25-.14-125.39-72.4v-145.08l.25-.14,125.39-72.4.25.14,125.39,72.4v145.08l-.25.14-125.39,72.4Zm-124.64-73.12l124.64,71.96,124.64-71.96v-143.93l-124.64-71.96-124.64,71.96v143.93Z"/><polygon class="cls-93" points="2002.85 1806.22 2001.85 1806.22 2001.85 1662 1876.95 1589.9 1877.45 1589.03 2002.85 1661.43 2002.85 1806.22"/><rect class="cls-124" x="1992.67" y="1625.09" width="144.5" height="1" transform="translate(-536.28 1251.19) rotate(-30.02)"/><path class="cls-74" d="m2002.35,2095.83l-.25-.14-125.39-72.4v-145.08l.25-.14,125.39-72.4.25.14,125.39,72.4v145.08l-.25.14-125.39,72.4Zm-124.64-73.12l124.64,71.96,124.64-71.96v-143.93l-124.64-71.96-124.64,71.96v143.93Z"/><path class="cls-62" d="m2127.49,1879.05l-.25-.14-125.39-72.4v-145.08l.25-.14,125.39-72.4.25.14,125.39,72.4v145.08l-.25.14-125.39,72.4Zm-124.64-73.12l124.64,71.96,124.64-71.96v-143.93l-124.64-71.96-124.64,71.96v143.93Z"/><polygon class="cls-33" points="2127.99 1878.47 2126.99 1878.47 2126.99 1734.26 2002.1 1662.15 2002.6 1661.28 2127.99 1733.68 2127.99 1878.47"/><rect class="cls-94" x="2117.81" y="1697.34" width="144.5" height="1" transform="translate(-555.66 1323.63) rotate(-30.02)"/><path class="cls-41" d="m750.9,1806.84l-.25-.14-125.39-72.4v-145.08l.25-.14,125.39-72.4.25.14,125.39,72.4v145.08l-.25.14-125.39,72.4Zm-124.64-73.12l124.64,71.96,124.64-71.96v-143.93l-124.64-71.96-124.64,71.96v143.93Z"/><polygon class="cls-64" points="751.4 1806.26 750.4 1806.26 750.4 1662.04 625.51 1589.94 626.01 1589.07 751.4 1661.47 751.4 1806.26"/><path class="cls-31" d="m876.04,1879.09l-.25-.14-125.39-72.4v-145.08l.25-.14,125.39-72.4.25.14,125.39,72.4v145.08l-.25.14-125.39,72.4Zm-124.64-73.12l124.64,71.96,124.64-71.96v-143.93l-124.64-71.96-124.64,71.96v143.93Z"/><path class="cls-10" d="m250.22,1806.84l-.25-.14-125.39-72.4v-145.08l.25-.14,125.39-72.4.25.14,125.39,72.4v145.08l-.25.14-125.39,72.4Zm-124.64-73.12l124.64,71.96,124.64-71.96v-143.93l-124.64-71.96-124.64,71.96v143.93Z"/><path class="cls-48" d="m500.58,1084.35l-.25-.14-125.39-72.4v-145.08l.25-.14,125.39-72.4.25.14,125.39,72.4v145.08l-.25.14-125.39,72.4Zm-124.64-73.12l124.64,71.96,124.64-71.96v-143.93l-124.64-71.96-124.64,71.96v143.93Z"/><polygon class="cls-42" points="501.08 1083.77 500.08 1083.77 500.08 939.55 375.18 867.44 375.68 866.58 501.08 938.97 501.08 1083.77"/><rect class="cls-58" x="490.9" y="902.64" width="144.5" height="1" transform="translate(-376.33 402.96) rotate(-30.02)"/><path class="cls-78" d="m375.43,1012.09l-.25-.14-125.39-72.4v-145.08l.25-.14,125.39-72.4.25.14,125.39,72.4v145.08l-.25.14-125.39,72.4Zm-124.64-73.12l124.64,71.96,124.64-71.96v-143.93l-124.64-71.96-124.64,71.96v143.93Z"/><polygon class="cls-60" points="375.93 1011.52 374.93 1011.52 374.93 867.3 250.04 795.19 250.54 794.33 375.93 866.72 375.93 1011.52"/><polygon class="cls-114" points="751.19 2095.7 750.69 2094.84 875.58 2022.73 875.58 1878.8 750.69 1806.69 751.19 1805.83 876.58 1878.22 876.58 2023.31 876.33 2023.45 751.19 2095.7"/><polygon class="cls-103" points="876.33 722.94 875.83 722.07 1000.72 649.97 1000.72 506.04 875.83 433.93 876.33 433.07 1001.72 505.46 1001.72 650.54 1001.47 650.69 876.33 722.94"/><rect class="cls-51" x="500.08" y="604.3" width="1" height="190.46"/><rect class="cls-82" x="1563.91" y="1336.59" width="1" height="144.56" transform="translate(-437.76 2059.74) rotate(-60.01)"/><rect class="cls-2" x="2314.74" y="1770.05" width="1" height="144.56" transform="translate(-437.63 2926.89) rotate(-60.01)"/><rect class="cls-37" x="187.18" y="541.85" width="1" height="144.56" transform="translate(-438.04 469.75) rotate(-60.01)"/></g></g></svg>