<?xml version="1.0" encoding="UTF-8"?><svg xmlns="http://www.w3.org/2000/svg" xmlns:xlink="http://www.w3.org/1999/xlink" viewBox="0 0 400 400"><defs><style>.cls-1{fill:url(#linear-gradient-2);}.cls-2{fill:#555;}.cls-3{fill:#fff;}.cls-4{fill:#717171;}.cls-5{isolation:isolate;}.cls-6{fill:#1c1c1c;}.cls-7{fill:url(#radial-gradient);}.cls-8{fill:#8e8e8e;}.cls-9{fill:#aaa;}.cls-10{clip-path:url(#clippath);}.cls-11{fill:url(#radial-gradient-2);}.cls-12{fill:none;}.cls-13{fill:url(#radial-gradient-3);}.cls-14{fill:#383838;}.cls-15{fill:url(#linear-gradient-3);}.cls-16{fill:url(#linear-gradient);}.cls-17{fill:#c6c6c6;}.cls-18{fill:url(#linear-gradient-4);}.cls-19{mix-blend-mode:multiply;}.cls-20{fill:#e3e3e3;}</style><clipPath id="clippath"><rect class="cls-12" width="400" height="400" transform="translate(400 400) rotate(180)"/></clipPath><radialGradient id="radial-gradient" cx="199.99" cy="200" fx="199.99" fy="200" r="200" gradientTransform="translate(400) rotate(-180) scale(1 -1)" gradientUnits="userSpaceOnUse"><stop offset="0" stop-color="#3b3b3b"/><stop offset=".44" stop-color="#292929"/><stop offset="1" stop-color="#161616"/></radialGradient><radialGradient id="radial-gradient-2" cx="330.39" cy="69.6" fx="330.39" fy="69.6" r="48.24" gradientTransform="translate(400) rotate(-180) scale(1 -1)" gradientUnits="userSpaceOnUse"><stop offset="0" stop-color="aqua"/><stop offset="1" stop-color="#189fee"/></radialGradient><linearGradient id="linear-gradient" x1="348.53" y1="108.21" x2="399.99" y2="108.21" gradientTransform="translate(400) rotate(-180) scale(1 -1)" gradientUnits="userSpaceOnUse"><stop offset="0" stop-color="#3b3b3b"/><stop offset=".49" stop-color="#2d2d2d"/><stop offset="1" stop-color="#1b1b1b"/></linearGradient><linearGradient id="linear-gradient-2" x1="324.9" y1="31.14" x2="381.57" y2="-16.86" xlink:href="#linear-gradient"/><radialGradient id="radial-gradient-3" cx="96.92" cy="193.07" fx="96.92" fy="193.07" r="48.24" gradientTransform="translate(233.47 523.47) scale(1 -1)" xlink:href="#radial-gradient-2"/><linearGradient id="linear-gradient-3" x1="115.06" y1="231.67" x2="166.52" y2="231.67" gradientTransform="translate(233.47 523.47) scale(1 -1)" xlink:href="#linear-gradient"/><linearGradient id="linear-gradient-4" x1="22.96" y1="425.63" x2="73.96" y2="371.63" gradientTransform="translate(400) rotate(-180) scale(1 -1)" gradientUnits="userSpaceOnUse"><stop offset="0" stop-color="#1b1b1b"/><stop offset=".51" stop-color="#2d2d2d"/><stop offset="1" stop-color="#3b3b3b"/></linearGradient></defs><g class="cls-5"><g id="Layer_2"><g id="Layer_1-2"><g class="cls-10"><polygon class="cls-7" points="0 400 235.05 400 282.16 378.64 378.64 282.16 400 235.04 400 0 164.96 0 117.85 21.36 21.37 117.84 0 164.96 0 400"/><g class="cls-19"><polygon class="cls-3" points="136.23 8.63 48.45 48.44 8.64 136.23 136.23 8.63"/><polygon class="cls-20" points="133.94 10.22 48.83 48.82 10.23 133.93 133.94 10.22"/><polygon class="cls-17" points="131.64 11.82 49.2 49.2 11.82 131.63 131.64 11.82"/><polygon class="cls-9" points="129.34 13.41 49.58 49.58 13.41 129.33 129.34 13.41"/><polygon class="cls-8" points="127.04 15 49.96 49.95 15 127.04 127.04 15"/><polygon class="cls-4" points="124.74 16.59 50.34 50.33 16.59 124.74 124.74 16.59"/><polygon class="cls-2" points="122.44 18.18 50.72 50.71 18.19 122.44 122.44 18.18"/><polygon class="cls-14" points="120.15 19.77 51.09 51.09 19.78 120.14 120.15 19.77"/><polygon class="cls-6" points="21.37 117.84 117.85 21.36 51.47 51.47 21.37 117.84"/></g><polygon class="cls-11" points="21.37 117.84 117.85 21.36 51.47 51.47 21.37 117.84"/><g class="cls-19"><polygon class="cls-3" points="25.01 119.49 59.51 43.43 -3.99 72.22 -3.99 183.47 25.01 119.49"/><polygon class="cls-20" points="24.56 119.29 58.5 44.43 -3.49 72.54 -3.49 181.15 24.56 119.29"/><polygon class="cls-17" points="24.1 119.08 57.5 45.44 -2.99 72.87 -2.99 178.84 24.1 119.08"/><polygon class="cls-9" points="23.65 118.87 56.49 46.44 -2.49 73.19 -2.49 176.52 23.65 118.87"/><polygon class="cls-8" points="23.19 118.67 55.49 47.45 -1.99 73.51 -1.99 174.21 23.19 118.67"/><polygon class="cls-4" points="22.74 118.46 54.48 48.45 -1.49 73.83 -1.49 171.9 22.74 118.46"/><polygon class="cls-2" points="22.28 118.25 53.48 49.46 -.99 74.16 -.99 169.58 22.28 118.25"/><polygon class="cls-14" points="21.82 118.05 52.48 50.46 -.49 74.48 -.49 167.27 21.82 118.05"/><polygon class="cls-6" points="0 164.96 21.37 117.84 51.47 51.47 0 74.8 0 164.96"/></g><polygon class="cls-16" points="0 164.96 21.37 117.84 51.47 51.47 0 74.8 0 164.96"/><g class="cls-19"><polygon class="cls-3" points="183.47 -4 89.74 -4 -3.99 -4 -3.99 38.5 -3.99 59.75 -3.99 81.01 42.87 59.75 89.74 38.5 183.47 -4"/><polygon class="cls-20" points="-3.49 -3.5 87.87 -3.5 134.51 -3.5 181.16 -3.5 128.42 20.41 88.83 38.37 54.09 54.12 42.67 59.3 -3.49 80.23 -3.49 59.3 -3.49 38.37 -3.49 -3.5"/><polygon class="cls-17" points="-2.99 -3 86.01 -3 132.42 -3 178.84 -3 126.91 20.55 87.92 38.23 53.72 53.74 42.47 58.84 -2.99 79.45 -2.99 58.84 -2.99 38.23 -2.99 -3"/><polygon class="cls-9" points="-2.49 -2.5 84.14 -2.5 130.33 -2.5 176.53 -2.5 125.4 20.69 87.02 38.09 53.34 53.36 42.27 58.38 -2.49 78.68 -2.49 58.38 -2.49 38.09 -2.49 -2.5"/><polygon class="cls-8" points="-1.99 -2 82.27 -2 128.24 -2 174.22 -2 123.89 20.82 86.11 37.95 52.97 52.98 42.06 57.93 -1.99 77.9 -1.99 57.93 -1.99 37.95 -1.99 -2"/><polygon class="cls-4" points="-1.49 -1.5 80.41 -1.5 126.15 -1.5 171.9 -1.5 122.38 20.96 85.2 37.82 52.59 52.6 41.86 57.47 -1.49 77.13 -1.49 57.47 -1.49 37.81 -1.49 -1.5"/><polygon class="cls-2" points="-.99 -1 78.54 -1 124.06 -1 169.59 -1 120.87 21.09 84.29 37.68 52.22 52.22 41.66 57.01 -.99 76.35 -.99 57.01 -.99 37.68 -.99 -1"/><polygon class="cls-14" points="-.49 -.5 76.67 -.5 121.97 -.5 167.28 -.5 119.36 21.23 83.39 37.54 51.85 51.84 41.46 56.55 -.49 75.58 -.49 56.56 -.49 37.54 -.49 -.5"/><polygon class="cls-6" points="74.81 0 119.88 0 164.96 0 117.85 21.36 51.47 51.47 0 74.8 0 37.4 0 0 74.81 0"/></g><polygon class="cls-1" points="74.81 0 164.96 0 117.85 21.36 51.47 51.47 0 74.8 0 0 74.81 0"/><g class="cls-19"><polygon class="cls-3" points="263.77 391.37 351.55 351.56 391.36 263.78 263.77 391.37"/><polygon class="cls-20" points="266.06 389.78 351.17 351.18 389.77 266.07 266.06 389.78"/><polygon class="cls-17" points="268.36 388.19 350.8 350.81 388.18 268.37 268.36 388.19"/><polygon class="cls-9" points="270.66 386.6 350.42 350.43 386.59 270.67 270.66 386.6"/><polygon class="cls-8" points="272.96 385.01 350.04 350.05 385 272.97 272.96 385.01"/><polygon class="cls-4" points="275.26 383.42 349.66 349.67 383.4 275.27 275.26 383.42"/><polygon class="cls-2" points="277.56 381.82 349.28 349.3 381.81 277.57 277.56 381.82"/><polygon class="cls-14" points="279.85 380.23 348.91 348.92 380.22 279.87 279.85 380.23"/><polygon class="cls-6" points="378.63 282.16 282.15 378.64 348.53 348.54 378.63 282.16"/></g><polygon class="cls-13" points="378.63 282.16 282.15 378.64 348.53 348.54 378.63 282.16"/><g class="cls-19"><polygon class="cls-3" points="374.99 280.51 340.49 356.58 403.99 327.78 403.99 216.54 374.99 280.51"/><polygon class="cls-20" points="375.44 280.72 341.5 355.57 403.49 327.46 403.49 218.85 375.44 280.72"/><polygon class="cls-17" points="375.9 280.92 342.5 354.57 402.99 327.14 402.99 221.17 375.9 280.92"/><polygon class="cls-9" points="376.35 281.13 343.51 353.56 402.49 326.82 402.49 223.48 376.35 281.13"/><polygon class="cls-8" points="376.81 281.34 344.51 352.56 401.99 326.49 401.99 225.79 376.81 281.34"/><polygon class="cls-4" points="377.26 281.54 345.52 351.55 401.49 326.17 401.49 228.11 377.26 281.54"/><polygon class="cls-2" points="377.72 281.75 346.52 350.55 400.99 325.85 400.99 230.42 377.72 281.75"/><polygon class="cls-14" points="378.18 281.96 347.52 349.54 400.49 325.53 400.49 232.74 378.18 281.96"/><polygon class="cls-6" points="399.99 235.05 378.63 282.16 348.53 348.54 399.99 325.21 399.99 235.05"/></g><polygon class="cls-15" points="399.99 235.05 378.63 282.16 348.53 348.54 399.99 325.21 399.99 235.05"/><g class="cls-19"><polygon class="cls-3" points="216.53 404 310.26 404 403.99 404 403.99 382.75 403.99 361.5 403.99 319 310.26 361.5 263.4 382.75 216.53 404"/><polygon class="cls-20" points="403.49 319.78 403.49 361.64 403.49 382.57 403.49 403.5 312.13 403.5 265.49 403.5 218.84 403.5 265.01 382.57 271.53 379.61 311.17 361.64 345.84 345.92 403.49 319.78"/><polygon class="cls-17" points="402.99 320.55 402.99 361.78 402.99 382.39 402.99 403 313.99 403 267.58 403 221.16 403 266.62 382.39 273.05 379.47 312.08 361.77 346.22 346.29 402.99 320.55"/><polygon class="cls-9" points="402.49 321.33 402.49 361.91 402.49 382.21 402.49 402.5 315.86 402.5 269.67 402.5 223.47 402.5 268.23 382.21 274.57 379.33 313 361.91 346.61 346.67 402.49 321.33"/><polygon class="cls-8" points="401.99 322.1 401.99 362.05 401.99 382.03 401.99 402 317.73 402 271.76 402 225.78 402 269.84 382.03 276.08 379.2 313.91 362.04 346.99 347.04 401.99 322.1"/><polygon class="cls-4" points="401.49 322.88 401.49 362.19 401.49 381.85 401.49 401.5 319.59 401.5 273.85 401.5 228.1 401.5 271.45 381.85 277.6 379.06 314.82 362.18 347.38 347.42 401.49 322.88"/><polygon class="cls-2" points="400.99 323.65 400.99 362.33 400.99 381.67 400.99 401 321.46 401 275.94 401 230.41 401 273.06 381.66 279.12 378.92 315.73 362.32 347.76 347.79 400.99 323.65"/><polygon class="cls-14" points="400.49 324.43 400.49 362.47 400.49 381.48 400.49 400.5 323.33 400.5 278.03 400.5 232.72 400.5 274.68 381.48 280.64 378.78 316.64 362.45 348.14 348.17 400.49 324.43"/><polygon class="cls-6" points="325.19 400 280.12 400 235.04 400 282.15 378.64 348.53 348.54 399.99 325.21 399.99 362.6 399.99 400 325.19 400"/></g><polygon class="cls-18" points="325.19 400 235.04 400 282.15 378.64 348.53 348.54 399.99 325.21 399.99 400 325.19 400"/></g></g></g></g></svg>