<?xml version="1.0" encoding="UTF-8"?><svg fill="#BD9B53" id="Layer_2" xmlns="http://www.w3.org/2000/svg" viewBox="0 0 100 100"><g id="Layer_1-2"><g id="Outline"><rect x="48.33" y="60.53" width="3.33" height="20.62" transform="translate(-30.84 102.16) rotate(-75.96)"/><rect x="48.33" y="53.86" width="3.33" height="20.62" transform="translate(-24.38 97.11) rotate(-75.96)"/><rect x="55.83" y="56.8" width="3.33" height="5.15" transform="translate(-14.05 100.76) rotate(-75.96)"/><rect x="44.17" y="50.45" width="3.33" height="12.03" transform="translate(-20.06 87.23) rotate(-75.96)"/><rect x="48.33" y="40.53" width="3.33" height="20.62" transform="translate(-11.44 87.01) rotate(-75.96)"/><path d="m53.33,21.67c2.76,0,5-2.24,5-5s-2.24-5-5-5-5,2.24-5,5c0,2.76,2.24,5,5,5Zm0-6.67c.92,0,1.67.75,1.67,1.67s-.75,1.67-1.67,1.67-1.67-.75-1.67-1.67c0-.92.75-1.67,1.67-1.67Z"/><rect x="69.59" y="49.17" width="15.81" height="3.33" transform="translate(-12.1 27.12) rotate(-18.43)"/><rect x="14.59" y="49.17" width="15.81" height="3.33" transform="translate(-14.92 9.72) rotate(-18.43)"/><path d="m96.43,50.39l-2.14,2.55c1.51,1.27,2.38,3.14,2.38,5.11v38.62h-13.33v-3.33c0-.33-.1-.65-.28-.92l-.13-.19c-3.35-5.04-2.68-11.75,1.59-16.04.59-.59.65-1.52.15-2.18l-7.5-10c-.83-1.1-.6-2.67.5-3.5,1.1-.83,2.67-.6,3.5.5l7.5,10c.55.74,1.6.89,2.33.33.42-.31.67-.81.67-1.33V1.67C91.67.75,90.92,0,90,0c-.18,0-.36.03-.53.09l-24.52,8.17L35.45.06c-.32-.09-.66-.08-.97.03h0S9.47,8.42,9.47,8.42c-.68.23-1.14.86-1.14,1.58v60c0,.92.75,1.67,1.67,1.67.52,0,1.02-.25,1.33-.67l7.5-10c.83-1.1,2.4-1.33,3.5-.5,1.1.83,1.33,2.4.5,3.5l-7.5,10c-.5.66-.43,1.59.15,2.18,4.27,4.29,4.93,10.99,1.59,16.04l-.13.19c-.18.27-.28.6-.28.92v3.33H3.33v-38.62c0-1.97.87-3.84,2.38-5.11l-2.14-2.55C1.31,52.29,0,55.09,0,58.05v40.28c0,.92.75,1.67,1.67,1.67h16.67c.92,0,1.67-.75,1.67-1.67v-4.5c3.77-5.9,3.29-13.55-1.17-18.94l1.08-1.44,10.62-3.54-1.05-3.16-6.05,2.02,2.08-2.77c.31-.41.56-.85.75-1.33l4.28-1.43-1.05-3.16-2.99.99c-.25-1-.76-1.92-1.48-2.66l5.52-1.84-1.05-3.16-15,5,.66,1.97-3.46,4.62v-16.97l1.51-.3c3.92-.79,7.46-2.89,10.02-5.96,2.52-3.03,6.2-4.88,10.14-5.08v38.78l-8.86,2.95,1.05,3.16,9.52-3.17,29.51,8.2c.32.09.67.08.99-.03h0l9.1-3.12-1.08-3.15-6.89,2.37v-34.63l1.51-.3c3.92-.79,7.46-2.89,10.02-5.96,2.52-3.03,6.2-4.88,10.14-5.08v28.31l-4.5-6c-.4-.54-.89-1-1.45-1.37l3.14-1.05-1.05-3.16-15,5,1.05,3.16,3.15-1.05c-.37,1.03-.44,2.15-.21,3.22l-4,1.33,1.05,3.16,4.53-1.51,1.89,2.52-7.47,2.49,1.05,3.16,8.53-2.84,2.12,2.83c-4.47,5.39-4.94,13.04-1.17,18.94v4.5c0,.92.75,1.67,1.67,1.67h16.67c.92,0,1.67-.75,1.67-1.67v-40.28c0-2.96-1.31-5.76-3.57-7.66Zm-8.09-31.08l-2.15-2.15c-.65-.65-1.71-.65-2.36,0-.13.13-.23.27-.31.43l-4.25,8.51-5.18-2.59c-.69-.35-1.53-.17-2.03.42l-5.39,6.46V11.2l21.67-7.22v15.33Zm-51.67,5.05l7.8-3.9,3.07,4.3-5.21,3.91,2,2.67,5.15-3.86,2.5,3.5c.53.75,1.58.92,2.32.39.07-.05.14-.11.21-.18l3.56-3.56,5.26,7.89v7.14l-.3-.3c-3.64-3.62-8.9-5.07-13.88-3.84-3.42.84-7.03.06-9.78-2.14l-2.7-2.16v-9.84Zm26.67-13.1v18.23l-3.61-5.42c-.51-.77-1.55-.97-2.31-.46-.09.06-.18.13-.25.21l-3.61,3.61-7.19-10.07c-.48-.67-1.37-.89-2.1-.52l-7.59,3.79V3.86l26.67,7.41Zm-30-7.29v16.02l-4-3c-.74-.55-1.78-.4-2.33.33l-4,5.33-5.33-4c-.74-.55-1.78-.4-2.33.33-.02.02-.04.05-.05.08l-3.61,5.42v-13.29l21.67-7.22Zm-12.7,35.66c-2.08,2.49-4.94,4.19-8.11,4.83l-.85.17v-14.13l5.41-8.11,5.26,3.94c.74.55,1.78.4,2.33-.33l4-5.33,4.67,3.5v9.18c-4.93.21-9.54,2.49-12.7,6.28Zm16.03,35.76v-36.93l.62.49c3.57,2.84,8.25,3.86,12.67,2.77,3.84-.95,7.91.18,10.71,2.97l2.66,2.66v35.45l-26.67-7.41Zm41.32-38.1l-3.48-3.48c-.65-.65-1.71-.65-2.36,0-.08.08-.15.16-.21.25l-3.33,5,2.77,1.85,2.21-3.31,2.03,2.03c-2.08,2.48-4.93,4.18-8.1,4.82l-.85.17v-9.03l7.1-8.52,5.49,2.74c.82.41,1.82.08,2.24-.75l3.97-7.93,2.88,2.88v9.33c-3.79.16-7.42,1.54-10.34,3.95Z"/><path d="m16.95,27.41l-3.33,5,2.77,1.85,2.41-3.61,3.61,2.41,1.85-2.77-5-3.33c-.77-.51-1.8-.3-2.31.46Z"/><path d="m10.17,3.33l.16-.03L9.67.03l-.16.03C3.99,1.18.01,6.03,0,11.67h3.33c0-4.05,2.86-7.53,6.83-8.33Z"/></g></g></svg>