<?xml version="1.0" encoding="UTF-8"?><svg fill="#BD9B53" id="Layer_2" xmlns="http://www.w3.org/2000/svg" viewBox="0 0 100 91.59"><g id="Layer_1-2"><path d="m60.83,72.54c0,5.89,0,11.78,0,17.66,0,1.16-.23,1.39-1.41,1.39-5.46,0-10.91,0-16.37,0-1.15,0-1.39-.25-1.39-1.41,0-11.84,0-23.68.01-35.52,0-.58-.13-.77-.73-.75-1.75.04-3.49.02-5.24.01-.99,0-1.28-.3-1.28-1.27,0-7.57-.01-15.14,0-22.71,0-3.86,2.87-6.77,6.73-6.8,6.69-.04,13.37-.06,20.06-.04,4.04.01,6.86,2.91,6.86,6.93,0,7.53,0,15.05,0,22.58,0,1.04-.26,1.31-1.29,1.31-1.75,0-3.49.02-5.24-.01-.56-.01-.72.14-.72.71.02,5.97.01,11.95.01,17.92Zm5.43-32.05c0-3.49,0-6.99,0-10.48,0-3.1-2.23-5.22-5.33-5.12-.33.01-.5.13-.64.42-.51,1.05-1.03,2.08-1.55,3.12-2.01,4.03-4.03,8.05-6.02,12.09-.26.54-.5.82-1.09.46-.23-.14-.5-.16-.74,0-.55.36-.8.17-1.08-.39-2.49-5.04-5.01-10.07-7.52-15.09-.12-.23-.16-.51-.54-.56-2.82-.35-5.48,1.86-5.5,4.73-.04,7.31-.01,14.63-.03,21.94,0,.4.12.52.51.51,1.42-.02,2.85-.03,4.27,0,.56.02.67-.17.67-.69-.02-4.75-.01-9.49-.01-14.24,0-1.05,0-1,1.06-1.06.65-.04.77.19.76.79-.03,4.85,0,9.71-.02,14.56,0,.45.07.64.59.64,1.9-.03,3.8-.03,5.69,0,.5,0,.61-.15.61-.62-.02-2.8-.01-5.61-.01-8.41,0-1.14,0-1.12,1.17-1.15.5-.01.66.12.65.64-.03,2.98,0,5.95-.02,8.93,0,.49.13.62.61.61,1.85-.03,3.71-.03,5.57,0,.56.01.73-.12.72-.71-.03-4.72-.01-9.45-.01-14.17,0-1.1,0-1.06,1.09-1.11.56-.02.73.12.73.7-.03,4.88,0,9.75-.03,14.63,0,.51.13.67.65.66,1.4-.03,2.8-.03,4.21,0,.5.01.6-.16.6-.63-.02-3.67-.01-7.33-.01-11Zm-22.79,31.37c0,5.74,0,11.48-.01,17.21,0,.54.09.74.7.73,1.83-.04,3.67-.04,5.5,0,.6.01.7-.18.7-.73-.02-7.36-.01-14.71-.01-22.07,0-.17.01-.35,0-.52-.02-.28.11-.39.38-.37.19.01.39,0,.58,0,.99.02.84-.12.85.86,0,7.38,0,14.75,0,22.13,0,.53.12.7.67.69,1.88-.03,3.75-.03,5.63,0,.51,0,.6-.18.6-.64-.01-11.54-.01-23.08,0-34.62,0-.53-.18-.63-.66-.63-4.75.02-9.49.02-14.24,0-.53,0-.68.13-.68.67.02,5.76.01,11.52.01,17.28Zm7.77-32.47c.62-1.23,1.15-2.35,1.73-3.44.22-.41.27-.78.14-1.23-.27-.98-.49-1.96-.73-2.94-.35-1.42-.7-2.83-1.09-4.37-.09.21-.14.28-.16.36-.61,2.4-1.22,4.8-1.82,7.2-.04.16-.08.37-.02.5.61,1.27,1.25,2.53,1.93,3.92Zm-3.31-6.65c.07-.1.13-.14.15-.2.5-1.98,1-3.96,1.5-5.93.03-.1.06-.22.03-.31-.09-.29-1.63-1.36-1.95-1.36-1.01,0-2.02.02-3.03,0-.47,0-.57.09-.34.53.63,1.2,1.21,2.42,1.82,3.63.6,1.21,1.21,2.41,1.83,3.64Zm6.59.1c1.31-2.62,2.54-5.08,3.77-7.54.19-.39-.06-.39-.32-.39-1.06,0-2.12-.06-3.17.02-.83.06-1.25.83-1.85,1.31-.05.04-.02.21,0,.31.5,2.05,1.01,4.09,1.56,6.3Z"/><path d="m6.2,61.51c0-6.73,0-13.46,0-20.19,0-.23-.16-.59.16-.68.34-.09.73-.04,1.09,0,.19.02.14.24.14.38,0,.54.02,1.08,0,1.62-.01.34.12.43.45.44,1.88.08,1.88.09,1.88-1.8,0-2.87-.01-5.74.01-8.61,0-.49-.14-.62-.62-.61-1.1.03-2.2-.02-3.27.32-2.76.89-4.62,3.4-4.64,6.35-.02,4.14,0,8.28-.01,12.43,0,.23.15.6-.16.68-.34.09-.74.07-1.09-.01-.25-.06-.14-.37-.14-.57,0-3.32-.01-6.64,0-9.97,0-1.38-.11-2.76.18-4.13.8-3.79,3.96-6.43,7.82-6.47,4.18-.04,8.37-.04,12.55,0,4.49.05,7.98,3.56,8.01,8.05.03,5.72.02,11.43,0,17.15,0,.69.2.81.83.79,1.49-.04,2.98-.02,4.46-.01.72,0,.91.19.91.92,0,3.97,0,7.94,0,11.91,0,.74-.18.9-.93.9-3.58,0-7.16.02-10.74-.01-.58,0-.72.16-.71.72.03,3.52.01,7.03.01,10.55,0,1.04-.11,1.14-1.16,1.14-4.62,0-9.23,0-13.85,0-1.07,0-1.2-.12-1.2-1.17,0-6.71,0-13.42,0-20.13Zm1.4,1.45c0,5.93,0,11.86-.01,17.79,0,.55.15.68.68.67,1.55-.04,3.11-.05,4.66,0,.61.02.69-.19.69-.73-.02-6.3-.01-12.59-.01-18.89,0-1.08-.02-2.16,0-3.23,0-.4-.13-.53-.52-.51-.52.03-1.03,0-1.55,0-.66,0-.35-.51-.4-.81-.05-.3-.07-.59.42-.58,1.83.02,3.67,0,5.5.01.14,0,.29-.05.38.15.29.63-.07,1.24-.73,1.24-.41,0-.82.02-1.23,0-.4-.03-.5.13-.5.52.01,7.44.01,14.88,0,22.32,0,.46.18.52.56.52,1.6-.02,3.19-.03,4.79,0,.55.01.72-.11.72-.7-.02-11.84-.02-23.68,0-35.52,0-.58-.14-.77-.74-.77-3.99.03-7.98.03-11.97,0-.66,0-.76.21-.76.8.02,5.91.01,11.82.01,17.73Zm19.61-15.86s-.02,0-.02,0c0-2.91.09-5.82-.03-8.73-.12-2.8-1.62-4.74-4.2-5.84-1.16-.49-2.4-.45-3.63-.47-.48,0-.62.11-.62.6.02,2.89.01,5.78.01,8.67,0,1.79,0,1.77,1.8,1.75.45,0,.55-.17.53-.57-.03-.49,0-.99,0-1.49,0-.14-.05-.37.13-.39.36-.04.75-.08,1.09,0,.27.07.14.42.14.63,0,4.92.01,9.83,0,14.75,0,.49.1.68.63.66,1.18-.04,2.37-.04,3.56,0,.54.02.63-.18.63-.66-.02-2.98,0-5.95,0-8.93Zm-9.89-9.54c0-1.64,0-3.28,0-4.92,0-.38-.04-.58-.51-.57-1.68.03-3.36.02-5.05,0-.36,0-.49.09-.49.47.01,3.34.01,6.69,0,10.03,0,.4.14.51.53.51,1.66-.02,3.32-.02,4.98,0,.43,0,.55-.12.54-.55-.02-1.66,0-3.32,0-4.98Zm10.55,26.52c1.66,0,3.32-.01,4.98,0,.42,0,.55-.11.55-.54-.02-1.66-.02-3.32,0-4.98,0-.39-.11-.52-.51-.51-3.32.01-6.64.01-9.95,0-.38,0-.53.11-.53.51.02,1.66.02,3.32,0,4.98,0,.43.14.55.56.54,1.64-.02,3.28,0,4.91,0Zm.07,1.4c-1.66,0-3.32.01-4.98,0-.41,0-.58.09-.56.53.03.84.02,1.68,0,2.52,0,.33.06.52.45.52,3.36,0,6.72,0,10.08,0,.33,0,.45-.11.44-.45-.02-.86-.03-1.72,0-2.59.02-.43-.12-.54-.54-.54-1.64.02-3.28,0-4.91,0Z"/><path d="m94.46,68.21c0,4.51,0,9.02,0,13.52,0,.93-.12,1.05-1.03,1.05-4.12,0-8.24,0-12.36,0-.91,0-1.03-.12-1.03-1.06,0-8.97,0-17.94,0-26.92,0-1.01.08-.84-.87-.85-1.27-.01-2.55-.02-3.82,0-.62.01-.84-.25-.84-.85.01-5.8,0-11.6.01-17.41.01-2.92,2.17-5.03,5.1-5.04,5.09-.01,10.18-.02,15.27,0,2.91,0,5.08,2.15,5.09,5.06.02,5.78,0,11.56,0,17.34,0,.75-.16.89-.92.89-1.34,0-2.68.02-4.01-.01-.48-.01-.61.12-.61.6.02,4.55.01,9.1.01,13.65Zm4.41-24.28c0-2.72.01-5.44,0-8.15-.01-2.32-1.62-3.92-3.95-3.99-.5-.02-.76.13-.98.59-1.84,3.75-3.72,7.48-5.58,11.22-.21.42-.36.87-.95.41-.11-.08-.27-.06-.37.02-.52.39-.66.02-.86-.37-1.88-3.78-3.78-7.55-5.65-11.34-.19-.38-.39-.53-.83-.53-2.38.02-3.98,1.54-4.07,3.93-.04,1.16-.01,2.33-.01,3.49,0,4.29.01,8.59-.02,12.88,0,.61.18.76.76.74,1.01-.04,2.03-.04,3.04,0,.53.02.66-.17.64-.66-.03-.75,0-1.51,0-2.26,0-2.89,0-5.78,0-8.67,0-.4.04-.62.55-.62.52,0,.59.18.59.64-.02,3.65,0,7.29-.02,10.94,0,.52.15.66.65.64,1.38-.03,2.76-.04,4.14,0,.57.01.78-.11.76-.73-.04-2.01-.03-4.01,0-6.02,0-.38-.37-1.05.56-1.03.94.02.52.7.53,1.07.04,2.01.04,4.01,0,6.02,0,.52.11.71.67.69,1.36-.04,2.72-.05,4.08,0,.62.02.79-.14.78-.77-.03-3.6,0-7.2-.03-10.81,0-.45.07-.66.59-.64.46.01.57.15.57.59-.02,3.67,0,7.33-.02,11,0,.46.09.64.6.63,1.08-.04,2.16-.04,3.23,0,.51.02.6-.17.59-.63-.02-2.76,0-5.52-.01-8.28Zm-17.71,23.82c0,4.42,0,8.84-.01,13.27,0,.5.12.67.64.65,1.4-.04,2.8-.04,4.21,0,.58.02.71-.16.71-.72-.02-5.59,0-11.17-.03-16.76,0-.56.16-.67.69-.67.6,0,.45.39.45.7,0,5.59.01,11.17,0,16.76,0,.53.14.7.68.68,1.42-.04,2.85-.03,4.27,0,.46,0,.57-.14.57-.58-.01-8.84-.01-17.69,0-26.53,0-.5-.15-.6-.62-.6-3.65.02-7.29.02-10.94,0-.54,0-.63.18-.63.66.02,4.38,0,8.76,0,13.14Zm6.09-24.47c1.94-3.89,3.81-7.64,5.71-11.44h-11.42c1.91,3.82,3.78,7.57,5.71,11.44Z"/><path d="m14.08,28.35c-.72-.01-1.63.06-2.52-.18-2.32-.62-3.99-2.67-4.09-5.08-.04-.95-.04-1.9-.02-2.85,0-.43-.14-.58-.56-.55-.47.03-.95-.02-1.42.01-.63.05-.49-.38-.5-.72,0-.35-.07-.71.49-.66.47.04.95-.01,1.42.02.42.03.58-.11.56-.54-.03-.78-.02-1.55,0-2.33.04-3.47,2.36-5.78,5.83-5.79,1.1,0,2.21-.12,3.29.09,2.74.52,4.57,2.73,4.61,5.52.01.82.03,1.64,0,2.46-.03.51.16.64.63.6.47-.04.95.02,1.42-.01.56-.04.45.35.42.64-.02.29.22.75-.41.73-.52-.02-1.04.02-1.55,0-.4-.02-.51.13-.51.52-.01,1.14.1,2.29-.08,3.42-.42,2.69-2.63,4.65-5.35,4.72-.5.01-.99,0-1.67,0Zm.24-8.65c-1.66,0-3.32,0-4.97,0-.37,0-.55.08-.54.5.03.88-.02,1.77.02,2.65.11,2.33,1.66,3.95,3.99,4.12,1.09.08,2.2.09,3.29-.03,2.07-.23,3.62-1.91,3.68-4,.02-.86-.02-1.72.02-2.58.02-.49-.1-.67-.63-.66-1.61.03-3.23.01-4.84.01Zm5.46-3.13c0-.53,0-.94,0-1.35-.05-2.39-1.9-4.18-4.28-4.17-.39,0-.53.1-.52.51.03.88-.03,1.77.02,2.65.03.57-.26.58-.66.55-.36-.02-.79.14-.76-.53.05-.9,0-1.81.02-2.71,0-.32-.08-.45-.43-.47-2.06-.1-3.95,1.42-4.27,3.46-.17,1.07-.03,2.15-.09,3.22-.03.49.15.62.62.61,2.82-.02,5.64,0,8.46-.01.6,0,1.37.25,1.75-.1.42-.39.07-1.18.14-1.67Z"/><path d="m59.39,10.96c-.04,2.19-.83,4.6-2.66,6.61-3.02,3.3-7.73,3.35-10.83.14-3.53-3.66-3.74-10.03-.46-13.94,3.34-3.98,8.75-3.81,11.88.36,1.32,1.76,2.06,4.02,2.06,6.83Zm-1.81.07c0-2.61-.66-4.57-1.86-6.06-2.29-2.84-6.04-3.04-8.54-.46-3.02,3.12-3.01,8.87.03,11.97,2.35,2.39,5.78,2.39,8.11-.02,1.59-1.66,2.22-3.7,2.27-5.42Z"/><path d="m87.2,16.05c-1.68,0-3.36,0-5.04,0-.8,0-.88-.08-.88-.9,0-2.41,0-4.83,0-7.24,0-.38-.12-.61-.43-.84-1.66-1.2-2.1-3.38-1.08-5.12,1.02-1.73,3.13-2.4,5-1.55.3.14.53.15.84,0,1.09-.53,2.21-.52,3.3,0,.28.14.5.13.78,0,1.92-.85,4.02-.19,5.04,1.57,1.02,1.77.55,3.9-1.18,5.14-.32.23-.37.48-.36.81,0,2.41,0,4.83,0,7.24,0,.82-.05.87-.89.87-1.7,0-3.41,0-5.11,0Zm.05-.94c1.51,0,3.02,0,4.53,0,.35,0,.5-.08.49-.47-.02-2.16-.01-4.31,0-6.47,0-.34-.1-.43-.45-.41-1.9.13-3.79.03-5.69.06-.13,0-.26-.01-.38-.05-.21-.06-.32-.2-.33-.42,0-.22.12-.39.31-.45.18-.06.38-.05.57-.05,1.75,0,3.5.03,5.24-.02,1.18-.03,2.04-.67,2.51-1.75.48-1.1.32-2.16-.46-3.08-.78-.93-1.81-1.18-2.98-.95-.41.08-.48.23-.2.59.44.57.69,1.24.72,1.97.01.33.04.7-.41.74-.43.04-.51-.28-.53-.64-.06-.78-.37-1.46-.96-1.99-.86-.77-1.87-.97-2.95-.59-1.17.41-1.8,1.27-1.95,2.5-.04.34-.04.77-.53.72-.51-.05-.47-.49-.42-.86.08-.65.26-1.29.68-1.79.45-.54.12-.61-.32-.69-1.66-.31-3.26.79-3.49,2.39-.25,1.74.9,3.25,2.63,3.42.36.04.75.05.72.53-.03.49-.44.48-.78.41-.43-.09-.56.04-.56.48.02,2.09.02,4.18,0,6.28,0,.47.17.58.6.57,1.47-.02,2.93,0,4.4,0Z"/><path d="m85.35,16.48c-1.37.78-2.25,1.77-2.74,3.09-.89,2.39-.18,5.17,1.69,6.63,1.98,1.54,4.71,1.25,6.4-.68,2.36-2.69,1.81-6.87-1.17-8.81-.07-.04-.13-.1-.22-.16,1.34-.26,1.71-.13,2.52.88,3.06,3.83,1.06,9.62-3.65,10.57-3.05.61-6.17-1.51-6.9-4.74-.42-1.87-.14-3.64.91-5.27.94-1.45,1.21-1.58,3.16-1.52Z"/></g></svg>