<?xml version="1.0" encoding="UTF-8"?><svg fill="#BD9B53" id="Layer_2" xmlns="http://www.w3.org/2000/svg" viewBox="0 0 97.83 100"><g id="Layer_1-2"><path d="m97.74,36.57c-.17-.63-.57-1.16-1.14-1.48L56.47,11.91V2.44c0-1.35-1.1-2.44-2.44-2.44H2.45C1.1,0,0,1.1,0,2.44v51.54C0,54.8.66,55.45,1.46,55.45s1.46-.66,1.46-1.46V2.93h50.61v68.72H2.93v-10.8c0-.81-.66-1.46-1.46-1.46s-1.46.66-1.46,1.46v11.28c0,1.35,1.1,2.44,2.44,2.44h13.4l43.47,25.1c1.17.67,2.67.27,3.34-.9l23.2-40.19c.4-.7.16-1.6-.54-2-.7-.4-1.6-.16-2,.54l-22.96,39.77-38.65-22.32h14.78l19.05,11c1.17.67,2.67.27,3.34-.9l15.47-26.8c.33-.57.41-1.22.24-1.85-.17-.63-.57-1.16-1.14-1.48l-16.98-9.81v-9.55l3.41,1.97c.7.4,1.59.17,2-.54.4-.7.16-1.6-.54-2l-4.88-2.82v-3.57c12.23,6.98,11.74,6.98,12.48,6.98.51,0,1-.26,1.27-.73.4-.7.16-1.6-.54-2l-13.21-7.63v-9.55l38.25,22.08-7.97,13.81c-.4.7-.16,1.6.54,2,.7.4,1.59.17,2-.54l8.21-14.22c.33-.57.42-1.23.25-1.86h0Zm-26.18,20.27l-14.99,25.95-14.23-8.22h11.68c1.35,0,2.44-1.1,2.44-2.44v-24.01l15.1,8.72Z"/><path d="m82.21,35.52c-2.44-1.41-5.56-.57-6.97,1.87-.68,1.18-.86,2.55-.51,3.87.73,2.72,3.52,4.34,6.25,3.61,2.72-.73,4.34-3.52,3.61-6.25-.35-1.32-1.2-2.42-2.38-3.1Zm-1.99,6.51c-1.16.31-2.35-.38-2.66-1.53-.5-1.86,1.52-3.4,3.18-2.44,1.66.96,1.35,3.47-.52,3.97Z"/><path d="m37.15,48c-.82-1.36-2.26-2.16-3.84-2.16-1.52,0-2.9.75-3.74,2.01l-2.99-6.59c-.5-1.1-1.56-1.78-2.77-1.78s-2.27.68-2.76,1.78l-6.38,14.08c-.34.76-.28,1.63.17,2.33s1.22,1.12,2.05,1.12h22.45c.88,0,1.7-.48,2.13-1.24.43-.77.42-1.71-.04-2.46l-4.28-7.08Zm-19.49,7.86l6.07-13.39s.03-.06.1-.06.08.03.1.06l6.07,13.39h-12.33Zm15.55,0l-2.17-4.78.94-1.56c.41-.68,1.07-.75,1.33-.75s.92.07,1.33.75l3.84,6.34h-5.27Z"/><path d="m33.31,43.1c2.54,0,4.6-2.06,4.6-4.6s-2.06-4.6-4.6-4.6-4.6,2.06-4.6,4.6,2.06,4.6,4.6,4.6Zm0-6.27c.92,0,1.67.75,1.67,1.67s-.75,1.67-1.67,1.67-1.67-.75-1.67-1.67.75-1.67,1.67-1.67Z"/><path d="m8.37,28.92v34.85c0,1.35,1.1,2.44,2.44,2.44h34.85c1.35,0,2.44-1.1,2.44-2.44V28.92c0-1.35-1.1-2.44-2.44-2.44H10.81c-1.35,0-2.44,1.1-2.44,2.44h0Zm2.93.48h33.88v33.88H11.3V29.4Z"/><path d="m11.78,20.15h6.9c.81,0,1.46-.66,1.46-1.46s-.66-1.46-1.46-1.46h-6.9c-.81,0-1.46.66-1.46,1.46,0,.81.66,1.46,1.46,1.46Z"/><path d="m11.78,14.13h17.62c.81,0,1.46-.66,1.46-1.46s-.66-1.46-1.46-1.46H11.78c-.81,0-1.46.66-1.46,1.46s.66,1.46,1.46,1.46Z"/><path d="m46.87,12.67c0-2.81-2.29-5.1-5.1-5.1s-5.1,2.29-5.1,5.1,2.29,5.1,5.1,5.1,5.1-2.29,5.1-5.1Zm-7.27,0c0-1.2.97-2.17,2.17-2.17s2.17.97,2.17,2.17-.97,2.17-2.17,2.17-2.17-.97-2.17-2.17Z"/></g></svg>