<?xml version="1.0" encoding="UTF-8"?><svg fill="#BD9B53" id="Layer_2" xmlns="http://www.w3.org/2000/svg" viewBox="0 0 100 98.76"><defs><style>.cls-1{stroke-miterlimit:10;}.cls-1,.cls-2{fill:none;stroke:#BD9B53;stroke-width:1.53px;}.cls-2{stroke-linecap:round;stroke-linejoin:round;}</style></defs><g id="Layer_1-2"><g id="icons"><path class="cls-2" d="m64.88,90.6c.33-2.3,1.9-4.23,4.09-5.01l5.6-2c.69-.26,1.15-.93,1.15-1.67v-2.76"/><path class="cls-2" d="m83.85,78.79v3.15c0,.74.45,1.4,1.14,1.66l5.44,1.97c2.17.79,3.73,2.71,4.06,5"/><path class="cls-2" d="m79.69,62.5c3.41-.19,6.33,2.42,6.53,5.83,0,.08,0,.17,0,.25.14,2.07.01,4.16-.38,6.2-.42,2.09-2.17,5.89-6.15,5.89s-5.73-3.8-6.15-5.89c-.4-2.04-.53-4.12-.38-6.2.06-3.42,2.87-6.14,6.29-6.08.08,0,.17,0,.25,0Z"/><path class="cls-2" d="m34.37,98l.82-5.8c.33-2.3,1.9-4.23,4.09-5.01l5.6-2c.69-.26,1.15-.93,1.15-1.67v-2.76"/><path class="cls-2" d="m54.17,80.38v3.15c0,.74.45,1.4,1.14,1.66l5.44,1.97c2.17.79,3.73,2.71,4.06,5l.83,5.83"/><path class="cls-2" d="m50,64.1c3.41-.19,6.33,2.42,6.53,5.83,0,.08,0,.17,0,.25.14,2.07.01,4.16-.38,6.2-.42,2.09-2.17,5.89-6.15,5.89s-5.73-3.8-6.15-5.89c-.4-2.04-.53-4.12-.38-6.2.06-3.42,2.87-6.14,6.29-6.08.08,0,.17,0,.25,0Z"/><path class="cls-2" d="m5.51,90.6c.33-2.3,1.9-4.23,4.09-5.01l5.6-2c.69-.26,1.15-.93,1.15-1.67v-2.76"/><path class="cls-2" d="m24.48,78.79v3.15c0,.74.45,1.4,1.14,1.66l5.44,1.97c2.17.79,3.73,2.71,4.06,5"/><path class="cls-2" d="m20.31,62.5c3.41-.19,6.33,2.42,6.53,5.83,0,.08,0,.17,0,.25.14,2.07.01,4.16-.38,6.2-.42,2.09-2.17,5.89-6.15,5.89s-5.73-3.8-6.15-5.89c-.4-2.04-.53-4.12-.38-6.2.06-3.42,2.87-6.14,6.29-6.08.08,0,.17,0,.25,0Z"/><path class="cls-1" d="m50,1.56h14.06v7.81h-14.06V1.56Z"/><path class="cls-1" d="m26.56,31.25v-3.13l23.44-14.06,23.44,14.06v3.13H26.56Z"/><path class="cls-1" d="m25,37.5h50"/><path class="cls-1" d="m78.12,37.5h21.88"/><path class="cls-1" d="m0,37.5h21.88"/><path class="cls-1" d="m50,14.06V0"/><path class="cls-1" d="m6.25,48.44v-6.25"/><path class="cls-1" d="m14.06,48.44v-6.25"/><path class="cls-1" d="m21.88,48.44v-6.25"/><path class="cls-1" d="m6.25,57.81v-6.25"/><path class="cls-1" d="m14.06,57.81v-6.25"/><path class="cls-1" d="m21.88,57.81v-6.25"/><path class="cls-1" d="m35.94,48.44v-6.25"/><path class="cls-1" d="m35.94,57.81v-6.25"/><path class="cls-1" d="m50,48.44v-6.25"/><path class="cls-1" d="m50,57.81v-6.25"/><path class="cls-1" d="m64.06,48.44v-6.25"/><path class="cls-1" d="m64.06,57.81v-6.25"/><path class="cls-1" d="m78.12,48.44v-6.25"/><path class="cls-1" d="m85.94,48.44v-6.25"/><path class="cls-1" d="m93.75,48.44v-6.25"/><path class="cls-1" d="m78.12,57.81v-6.25"/><path class="cls-1" d="m85.94,57.81v-6.25"/><path class="cls-1" d="m93.75,57.81v-6.25"/><path class="cls-1" d="m28.91,37.5v20.31"/><path class="cls-1" d="m71.09,37.5v20.31"/><path class="cls-1" d="m57.03,37.5v20.31"/><path class="cls-1" d="m42.97,37.5v20.31"/></g></g></svg>