<?xml version="1.0" encoding="UTF-8"?><svg  id="Layer_2" xmlns="http://www.w3.org/2000/svg" viewBox="0 0 100 100" fill="#BD9B53"><g id="Layer_1-2"><path d="m75.09,93.16h-20.99v-1.17c0-.81-.66-1.46-1.46-1.46h-5.27c-.81,0-1.46.66-1.46,1.46v1.17H10.74v-2.44c0-.81-.66-1.46-1.46-1.46h-2.44v-35.16h1.17c.81,0,1.46-.66,1.46-1.46v-5.27c0-.81-.66-1.46-1.46-1.46h-1.17V10.74h2.44c.81,0,1.46-.66,1.46-1.46v-2.44h8.11c.81,0,1.46-.66,1.46-1.46s-.66-1.46-1.46-1.46h-8.11V1.46c0-.81-.66-1.46-1.46-1.46H1.46C.66,0,0,.66,0,1.46v7.81c0,.81.66,1.46,1.46,1.46h2.44v35.16h-1.17c-.81,0-1.46.66-1.46,1.46v5.27c0,.81.66,1.46,1.46,1.46h1.17v35.16H1.46c-.81,0-1.46.66-1.46,1.46v7.81c0,.81.66,1.46,1.46,1.46h7.81c.81,0,1.46-.66,1.46-1.46v-2.44h35.16v1.17c0,.81.66,1.46,1.46,1.46h5.27c.81,0,1.46-.66,1.46-1.46v-1.17h20.99c.81,0,1.46-.66,1.46-1.46s-.66-1.46-1.46-1.46ZM2.93,2.93h4.88v4.88H2.93V2.93Zm1.27,45.9h2.34v2.34h-2.34v-2.34Zm3.61,48.24H2.93v-4.88h4.88v4.88Zm43.36-1.27h-2.34v-2.34h2.34v2.34Z"/><path d="m98.54,10.74c.81,0,1.46-.66,1.46-1.46V1.46c0-.81-.66-1.46-1.46-1.46h-7.81c-.81,0-1.46.66-1.46,1.46v2.44h-35.16v-1.17c0-.81-.66-1.46-1.46-1.46h-5.27c-.81,0-1.46.66-1.46,1.46v1.17h-20c-.81,0-1.46.66-1.46,1.46s.66,1.46,1.46,1.46h20v1.17c0,.81.66,1.46,1.46,1.46h5.27c.81,0,1.46-.66,1.46-1.46v-1.17h35.16v2.44c0,.81.66,1.46,1.46,1.46h2.44v35.16h-1.17c-.81,0-1.46.66-1.46,1.46v5.27c0,.81.66,1.46,1.46,1.46h1.17v35.16h-2.44c-.81,0-1.46.66-1.46,1.46v2.44h-7.32c-.81,0-1.46.66-1.46,1.46s.66,1.46,1.46,1.46h7.32v2.44c0,.81.66,1.46,1.46,1.46h7.81c.81,0,1.46-.66,1.46-1.46v-7.81c0-.81-.66-1.46-1.46-1.46h-2.44v-35.16h1.17c.81,0,1.46-.66,1.46-1.46v-5.27c0-.81-.66-1.46-1.46-1.46h-1.17V10.74h2.44Zm-47.36-4.2h-2.34v-2.34h2.34v2.34Zm45.9,90.53h-4.88v-4.88h4.88v4.88Zm-1.27-45.9h-2.34v-2.34h2.34v2.34Zm-3.61-48.24h4.88v4.88h-4.88V2.93Z"/><path d="m15.49,83.24c.45.64,1.19,1.02,1.98,1.02h16.77c1.6,0,3.05-1.01,3.62-2.51l4.26-11.47h15.81l4.22,11.46c.55,1.51,2.01,2.53,3.62,2.53h16.78c.78,0,1.52-.38,1.98-1.02.45-.64.57-1.46.31-2.2l-22-62.73c-.54-1.54-2.01-2.58-3.64-2.58h-18.36c-1.63,0-3.1,1.04-3.64,2.58l-22,62.72c-.26.74-.14,1.56.31,2.2h0Zm24.46-63.95c.13-.37.48-.62.88-.62h8.86c.31.01.6.14.87.62l5.52,15.74c.27.76,1.1,1.17,1.87.9s1.17-1.1.9-1.87l-5.4-15.39h5.74c.39,0,.74.25.87.62l21.77,62.05h-6.42c-.02-.1-14.29-40.8-14.29-40.8-.27-.76-1.1-1.17-1.87-.9-.76.27-1.17,1.1-.9,1.87l13.97,39.83h-6.56c-.39,0-.74-.24-.87-.61l-4.57-12.42c-.21-.58-.76-.96-1.37-.96h-27.35c-.61,0-1.16.38-1.37.95l-1.2,3.23c-.28.76.1,1.6.86,1.88s1.6-.1,1.88-.86l.84-2.27h6.38l-3.88,10.45c-.14.36-.48.61-.87.61h-5.73l.87-2.34c.28-.76-.1-1.6-.86-1.88-.76-.28-1.6.1-1.88.86l-1.02,2.75c-.06.17-.17.32-.32.42-.16.12-.35.18-.55.18h-6.55l21.76-62.05Z"/><path d="m34.78,60.51h21.01c.48,0,.92-.23,1.19-.62s.34-.88.19-1.33l-10.54-30.05c-.21-.59-.76-.98-1.38-.98h0c-.62,0-1.18.39-1.38.98l-10.47,30.05c-.16.45-.09.94.19,1.33.27.39.72.62,1.19.62h0Zm11.57-2.93l3.68-10.56,3.7,10.56h-7.38Zm-1.09-24.15l3.21,9.15-5.22,14.99h-6.4l8.42-24.15Z"/></g></svg>