<?xml version="1.0" encoding="UTF-8"?><svg fill="#BD9B53" id="Layer_2" xmlns="http://www.w3.org/2000/svg" viewBox="0 0 100 100"><g id="Layer_1-2"><path d="m93.99,0h-31.16c-3.31,0-6,2.69-6,6.01v25.23c-.95-.24-1.93-.37-2.93-.37h0c-1,0-1.98.13-2.92.37V6.01C50.98,2.69,48.28,0,44.97,0H6.01C2.69,0,0,2.69,0,6.01v87.99c0,3.31,2.69,6.01,6.01,6.01h38.96c3.31,0,6.01-2.69,6.01-6.01v-28.2c.93-.37,1.92-.56,2.93-.56h0c1.01,0,2,.19,2.93.56v28.2c0,3.31,2.69,6.01,6,6.01h31.16c3.31,0,6.01-2.69,6.01-6.01V6.01C100,2.69,97.31,0,93.99,0h0Zm-40.09,34.77h0c1.01,0,2,.2,2.93.57v11.12c-.95-.24-1.93-.37-2.93-.37h0c-1,0-1.98.13-2.92.37v-11.12c.93-.37,1.92-.56,2.93-.56h0Zm-8.93,61.32H6.01c-1.16,0-2.1-.94-2.1-2.1V6.01c0-1.16.94-2.1,2.1-2.1h38.96c1.16,0,2.1.94,2.1,2.1v27.01c-.98.67-1.89,1.49-2.7,2.45-.7.82-.6,2.05.22,2.75.72.62,1.77.61,2.49.04v9.99c-.98.67-1.89,1.49-2.7,2.45-.7.82-.6,2.05.22,2.75.72.62,1.77.61,2.49.04v9.99c-.98.67-1.89,1.48-2.7,2.44-.7.82-.6,2.05.22,2.75.37.31.82.47,1.27.47s.87-.15,1.22-.43v25.29c0,1.16-.94,2.1-2.1,2.1h0Zm8.93-34.77h0c-1,0-1.98.13-2.92.37v-11.13c.93-.37,1.92-.56,2.93-.56h0c1.01,0,2,.2,2.93.57v11.13c-.95-.24-1.93-.37-2.93-.37h0Zm42.19,32.67c0,1.14-.96,2.1-2.1,2.1h-31.16c-1.15,0-2.09-.94-2.09-2.1v-25.29c.72.58,1.76.58,2.49-.04.82-.7.92-1.93.21-2.75-.82-.96-1.73-1.77-2.7-2.44v-9.99c.35.28.78.43,1.22.43s.9-.15,1.27-.47c.82-.7.92-1.93.22-2.75-.82-.96-1.73-1.77-2.7-2.44v-9.99c.35.28.78.43,1.22.43s.9-.15,1.27-.47c.82-.7.92-1.93.22-2.75-.82-.96-1.73-1.77-2.7-2.44V6.01c0-1.16.94-2.1,2.09-2.1h31.16c1.16,0,2.1.94,2.1,2.1v87.99Z"/><path d="m38.39,24.99h-.84c-.19-5.82-4.5-10.6-10.1-11.52v-1.94c0-1.08-.87-1.95-1.95-1.95s-1.95.87-1.95,1.95v1.94c-5.61.92-9.92,5.7-10.11,11.52h-.84c-1.08,0-1.95.87-1.95,1.95s.87,1.95,1.95,1.95h25.8c1.08,0,1.95-.87,1.95-1.95s-.87-1.95-1.95-1.95h0Zm-12.9-7.78c4.37,0,7.95,3.45,8.15,7.78h-16.31c.21-4.32,3.79-7.78,8.16-7.78Z"/><path d="m12.59,41.6h9.42c1.08,0,1.95-.87,1.95-1.95s-.87-1.95-1.95-1.95h-9.42c-1.08,0-1.95.87-1.95,1.95s.87,1.95,1.95,1.95Z"/><path d="m37.22,45.51H12.59c-1.08,0-1.95.87-1.95,1.95s.87,1.95,1.95,1.95h24.63c1.08,0,1.95-.87,1.95-1.95s-.87-1.95-1.95-1.95Z"/><path d="m12.59,61.13h9.42c1.08,0,1.95-.87,1.95-1.95s-.87-1.95-1.95-1.95h-9.42c-1.08,0-1.95.87-1.95,1.95s.87,1.95,1.95,1.95Z"/><path d="m37.22,65.03H12.59c-1.08,0-1.95.87-1.95,1.95s.87,1.95,1.95,1.95h24.63c1.08,0,1.95-.87,1.95-1.95s-.87-1.95-1.95-1.95Z"/><path d="m12.59,80.66h9.42c1.08,0,1.95-.87,1.95-1.95s-.87-1.95-1.95-1.95h-9.42c-1.08,0-1.95.87-1.95,1.95s.87,1.95,1.95,1.95Z"/><path d="m37.22,84.57H12.59c-1.08,0-1.95.87-1.95,1.95s.87,1.95,1.95,1.95h24.63c1.08,0,1.95-.87,1.95-1.95s-.87-1.95-1.95-1.95Z"/><path d="m87.49,74.8h-18.15c-1.08,0-1.95.87-1.95,1.95v9.77c0,1.08.87,1.95,1.95,1.95h18.15c1.08,0,1.95-.87,1.95-1.95v-9.77c0-1.08-.87-1.95-1.95-1.95h0Zm-1.95,9.77h-14.24v-5.86h14.24v5.86Z"/><path d="m87.49,14.26h-8.69c-1.08,0-1.95.87-1.95,1.95s.87,1.95,1.95,1.95h8.69c1.08,0,1.95-.87,1.95-1.95s-.87-1.95-1.95-1.95Z"/><path d="m69.34,18.16h1.64c1.08,0,1.95-.87,1.95-1.95s-.87-1.95-1.95-1.95h-1.64c-1.08,0-1.95.87-1.95,1.95s.87,1.95,1.95,1.95Z"/><path d="m87.49,22.07h-18.15c-1.08,0-1.95.87-1.95,1.95s.87,1.95,1.95,1.95h18.15c1.08,0,1.95-.87,1.95-1.95s-.87-1.95-1.95-1.95Z"/><path d="m87.49,41.6h-18.15c-1.08,0-1.95.87-1.95,1.95s.87,1.95,1.95,1.95h18.15c1.08,0,1.95-.87,1.95-1.95s-.87-1.95-1.95-1.95Z"/><path d="m87.49,33.79h-8.69c-1.08,0-1.95.87-1.95,1.95s.87,1.95,1.95,1.95h8.69c1.08,0,1.95-.87,1.95-1.95s-.87-1.95-1.95-1.95Z"/><path d="m69.34,37.69h1.64c1.08,0,1.95-.87,1.95-1.95s-.87-1.95-1.95-1.95h-1.64c-1.08,0-1.95.87-1.95,1.95s.87,1.95,1.95,1.95Z"/></g></svg>