<?xml version="1.0" encoding="UTF-8"?><svg fill="#BD9B53" id="Layer_2" xmlns="http://www.w3.org/2000/svg" viewBox="0 0 62.11 100"><g id="Layer_1-2"><path d="m57.34,39.46c2.53-2.41,4.77-5.74,4.77-9.99,0-3.01-1.91-5.57-4.77-6.46v-14.79c0-4.53-3.69-8.22-8.22-8.22H8.22C3.69,0,0,3.69,0,8.22v83.57c0,4.53,3.69,8.22,8.22,8.22h17.03c.81,0,1.46-.66,1.46-1.46s-.66-1.46-1.46-1.46H8.22c-2.92,0-5.29-2.37-5.29-5.29V8.22c0-2.92,2.37-5.29,5.29-5.29h40.9c2.92,0,5.29,2.37,5.29,5.29v14.52c-1.07.13-2.07.51-2.94,1.12v-9.78c0-1.27-1.07-2.35-2.35-2.35H8.22c-1.27,0-2.35,1.07-2.35,2.35v67.52c0,1.27,1.07,2.35,2.35,2.35h40.9c1.27,0,2.35-1.07,2.35-2.35v-38.02c1.01-.52,2.04-1.14,2.94-1.76v4.76c0,.81.66,1.46,1.46,1.46s1.46-.66,1.46-1.46v-7.12h0Zm1.84-9.99c0,5.16-4.58,9.25-9.17,11.57-4.59-2.31-9.51-6.75-9.15-11.89.18-2.31,2.09-3.53,3.92-3.52,2.42.02,3.15,1.9,3.58,2.34.96.97,2.46.96,3.42-.13.18-.2,1.45-2.89,4.53-2.08,1.32.35,2.87,1.53,2.87,3.7ZM14.54,49.43l7.85-7.84c.18-.18.47-.18.66,0l5.33,5.33-11.01,11.01h-2.36c-.26,0-.46-.21-.46-.46v-8.03Zm20.98-5.51c.18-.18.48-.18.66,0l6.61,6.61v6.93c0,.26-.21.46-.46.46h-20.82l14.01-14.01Zm2.73-2.07c-1.32-1.32-3.48-1.32-4.8,0l-3,3-5.33-5.33c-1.33-1.33-3.47-1.33-4.8,0l-5.77,5.77v-15.15c0-.26.21-.46.46-.46h22.91c.07,3.9,2.06,7.26,4.88,9.9v6.81l-4.54-4.54Zm10.28-23.24h-31.91v-3.94h31.91v3.94Zm-39.73-3.94h4.89v3.94h-4.89v-3.94Zm39.73,66.35H8.8V21.54h39.73v2.33c-3.42-2.35-8.38-1.03-10.07,2.88H15.01c-1.87,0-3.39,1.52-3.39,3.39v27.32c0,1.87,1.52,3.39,3.39,3.39h27.32c1.87,0,3.39-1.52,3.39-3.39v-15.56c.9.61,1.83,1.17,2.81,1.67v37.45Z"/></g></svg>