<?xml version="1.0" encoding="UTF-8"?><svg fill="#BD9B53" id="Layer_2" xmlns="http://www.w3.org/2000/svg" viewBox="0 0 54.95 100"><defs><style>.cls-1{fill:#201e1b;}</style></defs><g id="Layer_1-2"><path class="cls-1" d="m49.53,88.67H5.46c-.56,0-1.02-.46-1.02-1.02V12.35c0-.56.46-1.02,1.02-1.02h44.08c.56,0,1.02.46,1.02,1.02v75.3c0,.56-.46,1.02-1.02,1.02Zm-43.06-2.04h42.04V13.37H6.48v5.22h19.77c.56,0,1.02.46,1.02,1.02s-.46,1.02-1.02,1.02H6.48v66Zm36.84-6.97c-.56,0-1.02-.46-1.02-1.02V31.72c0-.56.46-1.02,1.02-1.02s1.02.46,1.02,1.02v46.92c0,.56-.46,1.02-1.02,1.02Zm0-52.18c-.56,0-1.02-.46-1.02-1.02v-7.95c0-.56.46-1.02,1.02-1.02s1.02.46,1.02,1.02v7.95c0,.56-.46,1.02-1.02,1.02Z"/><path class="cls-1" d="m50.79,13.37H4.21c-2.28,0-4.21-1.94-4.21-4.24v-4.89C0,1.9,1.89,0,4.21,0h46.58c2.3,0,4.17,1.9,4.17,4.24v4.89c0,2.34-1.87,4.24-4.17,4.24ZM4.21,2.04c-1.2,0-2.17.99-2.17,2.2v4.89c0,1.19.99,2.2,2.17,2.2h46.58c1.15,0,2.13-1.01,2.13-2.2v-4.89c0-1.21-.95-2.2-2.13-2.2H4.21Z"/><path class="cls-1" d="m50.79,100H4.21c-2.32,0-4.21-1.88-4.21-4.2v-4.93c0-2.3,1.93-4.24,4.21-4.24h46.58c2.3,0,4.17,1.9,4.17,4.24v4.93c0,2.31-1.87,4.2-4.17,4.2Zm-46.58-11.33c-1.18,0-2.17,1.01-2.17,2.2v4.93c0,1.17.99,2.16,2.17,2.16h46.58c1.17,0,2.13-.97,2.13-2.16v-4.93c0-1.19-.97-2.2-2.13-2.2H4.21Z"/></g></svg>