<?xml version="1.0" encoding="UTF-8"?><svg fill="#BD9B53" id="Layer_2" xmlns="http://www.w3.org/2000/svg" viewBox="0 0 100 101.42"><g id="Layer_1-2"><path d="m23.42,75.44c-.25,0-.5,0-.74,0-2.32-.06-4.64.16-6.95-.16-5.78-.8-10.63-5.92-11.11-11.74-.61-7.3,4.18-13.41,11.4-14.52.85-.13,1.71-.13,2.57-.13,1.98,0,3.95-.02,5.93.02.61.01.79-.14.78-.77-.02-12.7-.02-25.4-.02-38.09,0-.97,0-1.93,0-2.9,0-.85.28-1.13,1.12-1.13,6.47,0,12.93,0,19.4,0,.87,0,1.11.28,1.11,1.26,0,13.58,0,27.16,0,40.74,0,.99-.17.88.88.89,1.07,0,2.15,0,3.22,0,1.1,0,.94.12.94-.91,0-8.55,0-17.1,0-25.65,0-1.76,0-3.52,0-5.29,0-.45.12-.83.37-1.2,3.38-5.05,6.75-10.11,10.12-15.16.61-.91,1.2-.91,1.82.02,3.37,5.05,6.74,10.11,10.12,15.16.28.42.35.85.35,1.34,0,10.31,0,20.63-.02,30.94,0,.63.16.78.78.78,3.14-.03,6.27-.01,9.41-.01.15,0,.3,0,.45,0,.46,0,.86.1,1.03.59.16.5-.09.81-.47,1.09-1.22.9-2.26,1.98-3.18,3.18-4.88,6.44-3.51,14.72,2.8,19.74.27.21.53.23.84.23,3.65,0,7.3,0,10.96,0,.17,0,.34,0,.52,0,.45-.01.81.16.96.6.16.45-.06.78-.42,1.05-1.36,1-2.52,2.21-3.5,3.58-4.2,5.9-3.36,13.47,2.05,18.49.47.44.98.83,1.49,1.23.34.27.52.58.38,1-.14.41-.46.61-.89.6-.13,0-.26,0-.39,0-22.34,0-44.69,0-67.03,0-5.82,0-10.77-3.39-12.72-8.67-2.09-5.64-.12-11.95,4.81-15.44.29-.2.58-.41.87-.61l-.03-.12Zm59.74-24.82h-.95c-19.08,0-38.16,0-57.24,0-2.45,0-4.9-.03-7.35.01-6.26.11-11.19,5.02-11.37,11.28-.17,6.25,4.87,11.73,11.03,11.8,7.63.08,15.25.02,22.88.04.46,0,.53-.17.52-.56-.02-1.27-.04-2.54,0-3.8.02-.59-.17-.71-.72-.7-5.33.02-10.66.01-15.99.01-.24,0-.48.02-.7-.04-.45-.11-.7-.42-.66-.89.04-.44.29-.71.74-.76.23-.03.47-.02.71-.02,5.29,0,10.57,0,15.86.01.56,0,.81-.11.77-.73-.06-.83-.05-1.68,0-2.51.03-.55-.11-.72-.7-.72-5.33.03-10.66.01-15.99.01-.97,0-1.39-.25-1.4-.84,0-.6.41-.86,1.38-.86,5.35,0,10.7,0,16.05.01.5,0,.68-.12.65-.64-.04-.88-.04-1.76,0-2.64.02-.52-.12-.7-.67-.69-2.77.03-5.54.01-8.31.01-2.71,0-5.41,0-8.12,0-.61,0-1.01-.36-.97-.87.05-.57.4-.82.96-.83.13,0,.26,0,.39,0,15.47,0,30.94,0,46.41,0,.21,0,.43-.01.64.02.38.06.61.29.71.66.09.33-.04.59-.27.81-.26.25-.59.21-.91.21-3.35,0-6.7,0-10.06,0-2.81,0-5.63.01-8.44-.01-.52,0-.66.15-.63.65.04.84.05,1.68,0,2.51-.04.63.11.83.79.82,6.06-.03,12.12-.02,18.18-.02.24,0,.48-.01.71.03.35.06.56.31.64.64.08.32-.04.59-.28.81-.24.23-.54.22-.85.22-2.28,0-4.55,0-6.83,0-3.91,0-7.82.01-11.73-.01-.52,0-.65.15-.63.65.04.86.05,1.72,0,2.58-.04.59.15.75.74.75,5.46-.02,10.91-.01,16.37-.01.77,0,1.55,0,2.32,0,.53,0,.85.28.91.81.05.47-.34.85-.9.89-.19.02-.39,0-.58,0-6.06,0-12.12,0-18.18-.01-.52,0-.71.1-.69.66.05,1.24.04,2.49,0,3.74-.02.53.12.68.66.68,10.14-.02,20.28-.01,30.42-.02.17,0,.38.09.53-.09-6.22-6-6.96-15.92.13-23.01Zm12.5,24.82c-.37,0-.57,0-.78,0-21.44,0-42.88,0-64.33,0-.64,0-1.29.03-1.93.12-5.99.84-10.27,6.11-9.94,12.22.32,5.87,5.28,10.7,11.29,10.77,7.54.09,15.08.02,22.62.03.4,0,.52-.12.51-.51-.02-1.25,0-2.49,0-3.74q0-.83-.82-.83c-5.37,0-10.74,0-16.11,0-.75,0-1.12-.3-1.12-.86,0-.55.39-.86,1.13-.86.75,0,1.5,0,2.26,0,4.68,0,9.37,0,14.05.01.52,0,.66-.14.63-.64-.04-.86-.05-1.72,0-2.58.03-.55-.11-.72-.7-.72-5.35.03-10.7.02-16.05.01-.26,0-.52.03-.76-.07-.38-.16-.58-.44-.55-.85.02-.38.23-.65.61-.74.23-.05.47-.06.7-.06,2.26,0,4.51,0,6.77,0,3.12,0,6.23-.01,9.35.01.51,0,.66-.14.64-.64-.04-.88-.05-1.76,0-2.64.03-.56-.16-.66-.68-.66-5.33.02-10.66.01-15.98.01-.21,0-.43.02-.64-.02-.48-.09-.78-.37-.75-.89.02-.47.3-.74.77-.79.21-.02.43-.01.64-.01,15.43,0,30.85,0,46.28,0,.21,0,.43,0,.64.01.47.05.75.32.77.79.02.51-.28.8-.76.88-.21.04-.43.02-.64.02-6.08,0-12.16,0-18.24-.01-.52,0-.72.12-.69.67.05.77,0,1.55.01,2.32,0,1.05-.12.94.92.94,5.99,0,11.99,0,17.98,0,.26,0,.52,0,.77.05.4.08.63.36.65.77.03.53-.36.89-1.02.9-1.29.01-2.58,0-3.87,0-4.92,0-9.84,0-14.76-.01-.53,0-.71.14-.68.68.04.84.05,1.68,0,2.51-.04.59.15.75.74.75,6.06-.02,12.12-.01,18.18-.01.26,0,.52-.01.77.05.42.11.66.4.64.85-.02.44-.27.72-.71.79-.25.04-.51.03-.77.03-6.02,0-12.03.01-18.05-.02-.67,0-.84.19-.81.83.05,1.18.04,2.36,0,3.54-.02.55.12.73.71.73,10.12-.02,20.24-.01,30.36-.02.18,0,.38.08.59-.12-3.15-3.16-4.97-6.92-4.97-11.43,0-4.54,1.93-8.27,5.14-11.59ZM45.2,28.3c0-6.64,0-13.28,0-19.91,0-.37.08-.7-.52-.69-5.71.02-11.43.02-17.14,0-.44,0-.54.14-.53.55.02,1.7.02,3.39,0,5.09,0,.46.14.57.58.57,2.43-.02,4.85,0,7.28,0,.69,0,1.38-.01,2.06,0,.56.01.94.38.93.85,0,.48-.38.81-.95.83-.17,0-.34,0-.52,0-2.92,0-5.84,0-8.76,0-.46,0-.65.09-.63.6.04.92.04,1.85,0,2.77-.02.5.16.61.63.6,1.76-.02,3.52-.01,5.28,0,.62,0,1.25-.01,1.87.01.5.02.79.32.8.83,0,.51-.3.78-.79.85-.17.02-.34,0-.51,0-2.23,0-4.47.01-6.7-.01-.46,0-.59.13-.57.58.03.92.04,1.85,0,2.77-.02.5.17.61.63.6,2.94-.02,5.89,0,8.83,0,.21,0,.43,0,.64.02.47.06.74.36.75.82,0,.47-.28.76-.73.85-.19.04-.38.02-.58.02-2.99,0-5.97,0-8.96,0-.44,0-.6.11-.59.57.03.92.04,1.85,0,2.77-.02.5.16.6.63.6,2.23-.02,4.47-.01,6.7,0,.21,0,.43,0,.64.05.42.12.64.42.61.86-.02.42-.26.68-.66.76-.21.04-.43.04-.64.04-2.21,0-4.43.02-6.64-.01-.52,0-.66.16-.64.66.04.88.04,1.76,0,2.64-.02.5.12.65.63.65,2.96-.03,5.93-.01,8.89-.01.19,0,.39-.02.58.02.45.09.75.37.74.84,0,.49-.29.8-.8.84-.21.02-.43.01-.64.01-2.92,0-5.84.01-8.76-.01-.52,0-.66.16-.64.66.04.84.06,1.68,0,2.51-.05.66.16.82.81.81,2.25-.04,4.51-.02,6.77-.01.71,0,1.12.43.99,1.02-.12.54-.52.68-1.02.67-2.32,0-4.64,0-6.96-.01-.45,0-.59.12-.58.57.03,1.27.04,2.54,0,3.8-.02.57.14.72.71.72,5.59-.02,11.17-.02,16.76,0,.59,0,.75-.16.75-.75-.02-6.62-.01-13.23-.01-19.85Zm27.78,5.87c0-4.66,0-9.32,0-13.98,0-1.65-1.03-2.7-2.62-2.7-1.59,0-2.67,1.05-2.67,2.67,0,9.38,0,18.77-.01,28.15,0,.45.13.59.58.59,1.35-.02,2.71-.03,4.06,0,.54.02.68-.15.68-.68-.02-4.68-.01-9.36-.01-14.04Zm-19.3-.07c0,4.7,0,9.41-.01,14.11,0,.52.12.71.67.69,1.29-.04,2.58-.05,3.86,0,.62.02.79-.16.79-.78-.02-9.23-.01-18.47-.02-27.7,0-.24,0-.47-.03-.71-.15-1.09-.9-1.93-1.93-2.17-1.81-.42-3.33.76-3.33,2.64-.01,4.64,0,9.28,0,13.92Zm7.01.01c0,4.7,0,9.41-.01,14.11,0,.54.14.69.68.67,1.33-.04,2.66-.03,4,0,.5.01.65-.13.64-.64-.02-3.24-.01-6.49-.01-9.73,0-6.1,0-12.2,0-18.3,0-.9-.27-1.66-.99-2.2-.89-.67-1.88-.72-2.86-.28-.97.44-1.44,1.25-1.44,2.32,0,4.68,0,9.37,0,14.05Zm-18.31,37.81s.09.04.13.06c.91-1.13,1.81-2.27,2.73-3.4.53-.66,1.06-.66,1.59-.02.59.71,1.15,1.44,1.74,2.16.34.42.63.89,1.09,1.27.03-.12.05-.18.05-.24,0-4.64,0-9.27.01-13.91,0-.43-.19-.48-.55-.48-2.06.01-4.12.03-6.18,0-.54,0-.62.19-.62.66.02,2.21,0,4.42,0,6.63,0,2.42,0,4.85,0,7.27Zm19.66,24.96c.05-.15.07-.19.07-.22,0-4.66,0-9.32.02-13.97,0-.45-.21-.46-.55-.46-2.08,0-4.16.02-6.25,0-.48,0-.56.17-.55.6.01,4.53,0,9.06.01,13.59,0,.13-.08.3.14.41.88-1.1,1.76-2.2,2.65-3.3.64-.8,1.12-.8,1.75,0,.88,1.1,1.77,2.21,2.7,3.38Zm-7.88-80.71c.16-.02.22-.02.27-.04,1.95-.66,3.72-.48,5.19,1.1.26.28.36.03.5-.11,1.9-1.83,4.54-1.85,6.39-.01.32.32.44.22.69-.04.74-.77,1.65-1.2,2.73-1.28.86-.07,1.67.12,2.63.45-1.61-2.42-3.13-4.67-4.63-6.95-.23-.34-.41-.16-.64-.06-2.63,1.2-5.27,1.22-7.9,0-.42-.2-.58-.09-.8.25-1.26,1.92-2.54,3.82-3.81,5.73-.2.3-.39.59-.63.96Zm9.17-13.76c-1.12,1.67-2.19,3.28-3.27,4.88-.17.26-.09.35.16.46,2.06.89,4.12.89,6.19,0,.29-.12.34-.23.16-.51-1.07-1.58-2.13-3.17-3.24-4.84Zm-2.28,96.15c-.01-.11,0-.16-.02-.19-.53-.67-1.06-1.35-1.6-2.01-.31-.38-.55-1.04-.96-1.05-.41,0-.65.66-.96,1.03-.58.7-1.13,1.42-1.76,2.21h5.3Zm-12.31-24.86c-.87-1.08-1.65-2.07-2.45-3.06-.1-.13-.2-.39-.43-.11-.82,1.03-1.65,2.06-2.54,3.17h5.41Z"/><path d="m92.38,24.63c-4.21.01-7.65-3.4-7.67-7.59-.02-4.18,3.43-7.64,7.62-7.65,4.2,0,7.65,3.41,7.67,7.6.01,4.19-3.41,7.63-7.62,7.64Zm-5.93-7.62c0,3.3,2.64,5.93,5.93,5.93,3.25,0,5.89-2.66,5.89-5.91,0-3.28-2.67-5.95-5.94-5.93-3.25.01-5.88,2.66-5.88,5.92Z"/><path d="m5.37,92.39C2.44,92.38,0,89.94,0,87c0-2.93,2.45-5.37,5.39-5.37,2.94,0,5.38,2.44,5.37,5.38,0,2.94-2.45,5.38-5.38,5.37Zm0-9.03c-2.03,0-3.65,1.6-3.66,3.63-.01,2.05,1.63,3.68,3.69,3.67,2.03-.02,3.62-1.63,3.62-3.66,0-2.03-1.61-3.63-3.64-3.63Z"/><path d="m16.08,28.59c.8-.01,1.43.6,1.44,1.39,0,.79-.63,1.44-1.41,1.44-.74,0-1.39-.63-1.42-1.38-.03-.77.61-1.44,1.39-1.45Z"/><path d="m15.83,100.02c-.01-.79.61-1.43,1.41-1.43.79,0,1.43.64,1.43,1.42,0,.74-.64,1.39-1.38,1.41-.77.03-1.44-.62-1.45-1.4Z"/><path d="m3.66,6.01c.79-.01,1.46.63,1.45,1.41,0,.75-.64,1.4-1.39,1.42-.79.02-1.44-.62-1.44-1.42,0-.78.6-1.39,1.38-1.4Z"/><path d="m80.5,33.66c-.78,0-1.39-.59-1.41-1.37-.02-.79.63-1.46,1.41-1.46.77,0,1.44.68,1.42,1.46-.02.77-.64,1.37-1.42,1.37Z"/><path d="m83.61,2.92c-.01-.79.57-1.4,1.35-1.43.8-.03,1.46.59,1.48,1.38.02.77-.65,1.45-1.43,1.45-.76,0-1.39-.63-1.4-1.4Z"/><path d="m95.15,57.37c-.77-.01-1.39-.63-1.39-1.4,0-.78.67-1.45,1.44-1.43.75.02,1.38.66,1.38,1.42,0,.8-.63,1.42-1.44,1.41Z"/></g></svg>