<?xml version="1.0" encoding="UTF-8"?><svg fill="#BD9B53" id="Layer_2" xmlns="http://www.w3.org/2000/svg" viewBox="0 0 100 81.06"><g id="Layer_1-2"><path d="m59.47,0C42.12,0,27.28,10.96,21.51,26.33h-9.73V8.07c0-2.16-1.76-3.92-3.92-3.92h-3.93C1.76,4.15,0,5.91,0,8.07v23.48C0,32.63.88,33.51,1.96,33.51s1.96-.88,1.96-1.96V8.06s3.95.01,3.95.01v64.92s-3.95-.01-3.95-.01v-23.51c0-1.08-.88-1.96-1.96-1.96S0,48.4,0,49.48v23.51C0,75.15,1.76,76.91,3.92,76.91h3.93c2.16,0,3.92-1.76,3.92-3.92v-18.25h9.73c5.77,15.36,20.61,26.32,37.96,26.32,22.35,0,40.53-18.18,40.53-40.53S81.82,0,59.47,0h0ZM11.78,50.82v-20.59h8.48c-.86,3.29-1.33,6.74-1.33,10.29s.46,7,1.33,10.29h-8.48Zm47.69,26.32c-20.19,0-36.62-16.43-36.62-36.62S39.28,3.91,59.47,3.91s36.62,16.43,36.62,36.62-16.43,36.62-36.62,36.62Z"/><path d="m59.47,7.87c-18.01,0-32.66,14.65-32.66,32.66s14.65,32.66,32.66,32.66,32.66-14.65,32.66-32.66S77.48,7.87,59.47,7.87h0Zm0,61.41c-15.85,0-28.75-12.9-28.75-28.75s12.9-28.75,28.75-28.75,28.75,12.9,28.75,28.75-12.9,28.75-28.75,28.75Z"/><path d="m78.27,28.38h-4.26c-.9,0-1.69.62-1.9,1.49l-4.36,17.79h-19.39s-.04-.09-.05-.16l-2.22-11.2h18c1.08,0,1.96-.88,1.96-1.96s-.88-1.96-1.96-1.96h-18c-1.18,0-2.28.52-3.03,1.43s-1.04,2.09-.81,3.25l2.22,11.2c.39,1.95,1.9,3.31,3.68,3.31h21.13c.9,0,1.69-.62,1.9-1.49l4.36-17.79h2.72c1.08,0,1.96-.88,1.96-1.96s-.88-1.96-1.96-1.96h0Z"/><circle cx="1.96" cy="40.53" r="1.96"/><circle cx="50" cy="56.07" r="1.96"/><circle cx="66.51" cy="56.07" r="1.96"/><circle cx="1.96" cy="40.53" r="1.95"/></g></svg>