<?xml version="1.0" encoding="UTF-8"?><svg id="Layer_2" xmlns="http://www.w3.org/2000/svg" xmlns:xlink="http://www.w3.org/1999/xlink" viewBox="0 0 59.06 105.24"><defs><style>.cls-1{fill:url(#New_Gradient_Swatch_3);fill-rule:evenodd;}</style><linearGradient id="New_Gradient_Swatch_3" x1="15.2" y1="65.14" x2="56.73" y2="40.73" gradientTransform="translate(65.06 105.24) rotate(-180)" gradientUnits="userSpaceOnUse"><stop offset="0" stop-color="#d9c27e"/><stop offset="1" stop-color="#9b8854"/></linearGradient></defs><g id="OBJECTS"><path class="cls-1" d="m25.68,35.68c.34-.38.74-.77,1.19-1.21.5-.49,1.04-1.04,1.69-1.69l1.68,1.67c.46.45.88.85,1.23,1.25l8.16,8.16c.85-1.57,1.32-3.28,1.32-5.41,0-5.32-2.92-8.04-7.31-12.3-1.5-1.46-3.14-3.11-5.07-5.03-1.96,1.95-3.61,3.61-5.12,5.08-4.51,4.38-7.26,7.05-7.26,12.26,0,2.13.46,3.84,1.32,5.41,1.13,2.08,2.94,3.92,5.28,6.2.22.21.44.42.66.64,3.64,3.54,7.22,7.18,10.81,10.77l6.65,6.65,5.8,5.8,6.67,6.67c2.01-2,3.91-3.92,5.69-5.82l-6.63-6.63-5.76-5.76-6.63-6.63-5.69-5.69-5.77-5.77c-.56-.56-1.13-1.12-1.7-1.68-1.49-1.45-2.4-2.34-2.4-4.07,0-1.2.44-2,1.21-2.86h0Zm-13.77,13.77c1.29,2.12,3.04,4.11,5.18,6.3,1.08,1.11,2.27,2.26,3.54,3.5.72.71,1.47,1.44,2.24,2.22,1.72,1.72,3.59,3.6,5.69,5.69h0s6.62,6.62,6.62,6.62l5.78,5.78,6.64,6.64-3.93,3.93-15.11,15.11c-6.03-6.03-11.29-11.35-16.11-16.11l-2.93-2.93,6.64-6.64c2.09,2.07,4.29,4.27,6.63,6.62l-.02.02,5.78,5.78,5.78-5.78-.02-.02-5.76-5.76c-2.38-2.38-4.57-4.59-6.62-6.63-1.83-1.83-3.55-3.54-5.19-5.15-.18-.17-.35-.34-.53-.51-2.09-2.05-4.02-3.94-5.75-5.75-2.03-2.12-3.8-4.15-5.28-6.2-3.34-4.64-5.19-9.44-5.19-15.96,0-12.08,6.34-18.26,16.75-28.43,3.48-3.4,7.3-7.26,11.81-11.78,4.46,4.46,8.24,8.28,11.71,11.67,10.11,9.89,16.86,16.21,16.86,28.54,0,6.54-1.89,11.38-5.18,15.97l-6.73-6.73c1.62-2.67,2.53-5.57,2.53-9.28,0-8.28-4.53-12.52-11.32-19.16-2.32-2.27-4.86-4.84-7.86-7.84-3.03,3.03-5.6,5.63-7.93,7.91-6.99,6.82-11.24,10.97-11.24,19.08,0,3.71.89,6.59,2.53,9.28h0Zm16.65,55.79l15.11-15.11c-4.55,4.51-9.5,9.5-15.11,15.11Z"/></g></svg>