<?xml version="1.0" encoding="UTF-8"?><svg id="Layer_1" xmlns="http://www.w3.org/2000/svg" viewBox="0 0 708.72 172.89"><defs><style>.cls-1{fill:#fff;}</style></defs><path class="cls-1" d="m97.09,12.66c10.77,18.87,21.52,37.71,32.49,56.92,11.52-19.08,22.28-38.18,33.48-57.08,1.5,1.76,80.94,141,81.72,143.28-.76,0-1.44,0-2.13,0-10.79,0-21.59-.05-32.38.05-1.92.02-2.97-.57-3.95-2.24-15.94-27.25-31.95-54.46-47.96-81.67-.4-.68-.67-1.45-1.43-2.05-.65.32-.87,1.02-1.21,1.58-3.92,6.6-7.77,13.24-11.76,19.78-.84,1.37-.77,2.31,0,3.66,11.13,19.41,22.2,38.86,33.28,58.3.42.74.81,1.51,1.23,2.29-.71.5-1.36.3-1.96.3-11.03.02-22.07-.03-33.1.05-1.67.01-2.53-.55-3.36-1.97-20.61-35.17-41.26-70.31-61.96-105.42-.85-1.44-.84-2.45,0-3.88,5.9-9.97,11.71-20,17.55-30.01.35-.6.59-1.29,1.43-1.89Z"/><path class="cls-1" d="m309.29,153.71c1.2-11.42,1.9-22.8,2.46-34.17-.4-.06-.58-.14-.71-.09-5.62,2.37-11.6,3.54-17.37,5.39-1.99.63-3.86,1.51-5.51,2.83-2.05,1.64-3.08,3.73-2.5,6.32.59,2.62,2.56,3.97,5.04,4.58,3.42.84,6.82.52,10.2-.34.91-.23,1.76-.73,2.74-.65.43.59.02,1.07-.16,1.56-1.66,4.58-3.15,9.22-4.45,13.91-.37,1.34-.97,1.86-2.42,2.01-7.34.76-14.66,1.12-21.98-.08-2.29-.38-4.54-.9-6.71-1.74-9.14-3.56-13.89-10.44-14.69-20.04-.34-3.99.97-7.74,3.17-11.11,3.01-4.6,7.05-8.02,12.02-10.33,5.39-2.51,11.09-4.05,16.88-5.29,5.46-1.17,10.96-2.21,16.42-3.36,2.03-.43,4.05-.94,5.92-1.87,1.63-.81,2.95-1.92,3.43-3.77.71-2.75-.48-5.14-3.28-6.43-2.77-1.28-5.73-1.36-8.7-1.24-6.57.26-13.02,1.38-19.38,3-4.18,1.06-8.3,2.34-12.39,3.68-.58.19-1.12.62-1.86.3-.24-1.12.23-2.17.46-3.24.98-4.7,1.63-9.45,2.29-14.19.18-1.29.73-1.74,1.88-1.95,6.6-1.2,13.22-2.27,19.88-3.07,5.24-.63,10.5-.99,15.77-1.21,7.78-.32,15.49.22,23.06,2.18,2.17.56,4.25,1.36,6.27,2.34,6.87,3.34,10.35,8.83,10.33,16.44,0,3.43-.16,6.88-.45,10.3-1.16,13.86-2.1,27.74-2.4,41.65-.05,2.16-.23,4.31-.26,6.47-.02.99-.3,1.52-1.37,1.4-.32-.04-.64,0-.96-.02-9.35-.28-18.7-.21-28.05.01-.86.02-1.74.16-2.62-.18Z"/><path class="cls-1" d="m599.68,130.51c-.83,4.52-1.62,8.74-2.39,12.96-.46,2.51-.92,5.03-1.31,7.55-.19,1.28-.72,1.83-2.1,2.08-11.7,2.06-23.48,2.84-35.33,2.29-6.23-.29-12.44-.88-18.44-2.75-14.4-4.48-22.75-14.27-25.05-29.1-1.88-12.09,1.01-23.18,7.76-33.28,5.58-8.34,13.7-13.02,23.26-15.33,12.35-2.98,24.71-2.77,37.01.38,5.67,1.45,10.65,4.22,14.92,8.28,5.34,5.08,8.1,11.37,9.07,18.57.6,4.48.26,8.93-.48,13.37-.17,1.04-.55,1.61-1.69,1.49-.55-.06-1.12,0-1.68,0-17.67.02-35.33.04-53,.07-2.72,0-2.7-.51-2.66,2.75.07,5.6,2.5,9.8,7.5,12.44,5.17,2.74,10.73,3.5,16.49,3.28,8.67-.33,17.09-2.21,25.45-4.36.77-.2,1.54-.39,2.68-.67Zm-37.61-25.08h0c3.59-.01,7.18.02,10.77-.02,3.29-.04,3.23.73,3.07-3.24-.17-4.18-1.84-7.59-5.84-9.42-9.2-4.2-19.45,1.05-21.44,10.93-.32,1.6-.23,1.74,1.48,1.75,3.99.02,7.97,0,11.96,0Z"/><path class="cls-1" d="m14.26,155.32c16.41-28.78,32.8-57.5,49.41-86.63,16.58,29.07,32.98,57.81,49.34,86.48-.16.25-.2.32-.25.38-.05.06-.11.15-.16.15-32.29.04-64.59.07-96.88.09-.38,0-.79.06-1.45-.48Z"/><path class="cls-1" d="m487.88,54.58c0,2.4.05,4.55,0,6.7-.11,4.32-.26,8.63-.44,12.95-.05,1.14.33,1.54,1.5,1.52,4.88-.05,9.75-.02,14.63-.03.56,0,1.12.04,1.68,0,.98-.07,1.22.4,1.18,1.3-.12,2.88-.18,5.76-.27,8.63-.09,2.96-.2,5.91-.29,8.87-.06,2.01-.05,2.03-2.17,2.04-5.04.02-10.07,0-15.11.02-1.93,0-1.99.03-2.08,1.94-.38,7.67-.73,15.34-1.06,23.01-.08,2,.12,3.98.57,5.95.71,3.07,2.62,4.8,5.64,5.51,3.06.72,6.04.18,9.03-.32,1.7-.28,3.38-.71,5-1.06.44.61.21,1.09.12,1.53-1.23,6.19-2.53,12.36-3.7,18.56-.24,1.27-.76,1.66-1.97,1.89-8.6,1.65-17.26,2.33-26,1.83-3.28-.19-6.53-.62-9.67-1.6-8.14-2.55-12.62-8.64-12.86-17.36-.12-4.33.39-8.63.66-12.93.5-8.06,1.11-16.11,1.68-24.17.03-.48.02-.96.08-1.44.12-.94-.29-1.28-1.21-1.27-3.04.03-6.08.03-9.11.02-2.78,0-2.7.36-2.53-2.75.3-5.35.55-10.7.79-16.05.1-2.18-.07-2.12,2.11-2.12,3.12,0,6.24.01,9.35,0,2.97-.02,2.47.25,2.77-2.56.39-3.65.65-7.33.8-11,.06-1.44.66-1.92,1.95-2.14,9.29-1.59,18.55-3.32,27.76-5.36.38-.08.79-.07,1.18-.1Z"/><path class="cls-1" d="m429.44,97.23c-.83.2-1.53-.28-2.26-.52-6.84-2.28-13.85-3.14-21.03-2.68-1.84.12-3.67.36-5.39,1.03-3.48,1.35-4.08,4.35-1.43,6.96.97.96,2.12,1.7,3.25,2.45,4.26,2.83,8.55,5.62,12.78,8.49,2.52,1.71,4.86,3.65,6.92,5.9,6.42,7.03,7.37,16.62,2.39,24.07-1.81,2.71-4.22,4.78-7,6.45-5.3,3.17-11.1,4.81-17.18,5.6-9.68,1.27-19.31.58-28.92-.71-3.16-.42-6.3-1.07-9.46-1.51-1.22-.17-1.72-.63-1.84-1.92-.52-5.73-1.17-11.45-1.73-17.18-.13-1.34-.55-2.65-.4-4.1,1.07-.17,1.91.38,2.78.66,5.86,1.87,11.73,3.7,17.89,4.35,3.28.34,6.54.32,9.79-.27,1.42-.26,2.8-.7,3.96-1.61,2.06-1.61,2.27-3.87.54-5.83-1.07-1.21-2.42-2.08-3.74-2.99-4.26-2.97-8.55-5.91-12.79-8.91-2.35-1.66-4.57-3.49-6.58-5.57-10.57-10.96-5.75-26.23,5.11-31.91,4.69-2.45,9.76-3.48,14.94-4.06,9.36-1.04,18.68-.18,27.99.72,3.02.29,6.03.7,9.05,1.03.82.09,1.33.3,1.37,1.26.26,6.87,1.02,13.7,1.09,20.58,0,.07-.07.14-.12.24Z"/><path class="cls-1" d="m653.63,83.11c1.06-1.01,1.9-1.82,2.75-2.62,5.61-5.32,12.21-8.02,20-7.67,1.37.06,2.69.37,4.03.53,1.21.14,1.57.73,1.55,1.92-.09,4.32.19,8.63.43,12.95.16,2.87.3,5.75.43,8.62.03.71,0,1.42,0,2.27-2.76-.49-5.37-1.18-8.08-1.24-12.72-.32-20.11,7.35-21.57,18.59-1.48,11.37-1.72,22.79-1.22,34.24.14,3.23.58,2.87-2.58,2.87-9.44,0-18.87.02-28.31.01-.85,0-1.75.25-2.69-.28.29-4.18.59-8.39.89-12.6.64-9.01,1.46-18.01,1.87-27.03.56-12.31.89-24.62.5-36.94-.06-1.95,0-1.97,1.94-1.97,9.44-.01,18.87-.01,28.31-.01,1.76,0,1.76.01,1.75,1.89,0,2.04,0,4.08,0,6.48Z"/></svg>