<?xml version="1.0" encoding="UTF-8"?><svg id="Layer_2" xmlns="http://www.w3.org/2000/svg" xmlns:xlink="http://www.w3.org/1999/xlink" viewBox="0 0 277.5 105.24"><defs><style>.cls-1{fill:#fff;}.cls-2{fill:url(#New_Gradient_Swatch_3-2);}.cls-3{fill:url(#New_Gradient_Swatch_3);}.cls-4{fill:url(#New_Gradient_Swatch_3-3);fill-rule:evenodd;}</style><linearGradient id="New_Gradient_Swatch_3" x1="33" y1="91.77" x2="108.07" y2="91.77" gradientUnits="userSpaceOnUse"><stop offset="0" stop-color="#d9c27e"/><stop offset="1" stop-color="#9b8854"/></linearGradient><linearGradient id="New_Gradient_Swatch_3-2" x1="178.31" x2="250.62" xlink:href="#New_Gradient_Swatch_3"/><linearGradient id="New_Gradient_Swatch_3-3" x1="120.71" y1="65.14" x2="162.23" y2="40.73" gradientTransform="translate(276.07 105.24) rotate(-180)" xlink:href="#New_Gradient_Swatch_3"/></defs><g id="OBJECTS"><path class="cls-1" d="m109.07,78.91h-12.64s-7.21-28.74-7.21-28.74h-2.31s-4.62,19.97-4.62,19.97h7.91v8.77h-23.55s10.96-40.4,10.96-40.4h20.43s11.02,40.4,11.02,40.4Z"/><path class="cls-1" d="m190.66,78.91h-12.12v-30.47s-10.79,0-10.79,0v-9.93h31.97s3.46,9.93,3.46,9.93h-12.52s0,30.47,0,30.47Z"/><path class="cls-1" d="m235.7,78.91h-27.35s-3.46-9.93-3.46-9.93h18.7s0-6.69,0-6.69h-15.24v-7.62h15.24s0-6.23,0-6.23h-15.24s-3.46-9.93-3.46-9.93h30.82v40.4Z"/><path class="cls-1" d="m275.02,56.17c0,3.4-2.48,5.89-5.89,5.89h-.52l8.89,16.85h-12.46l-10.79-21.81h8.66v-8.66h-9.98v30.47h-12.12v-40.4h27.18c4.1,0,7.04,2.94,7.04,7.04v10.62Z"/><path class="cls-1" d="m39.96,38.54v-.02h-18.37s0,0,0,.01c-7.19,13.45-14.39,26.91-21.58,40.36,4.85-.03,9.7-.06,14.55-.09,4.49-9.62,8.97-19.25,13.46-28.87,2.16.02,4.32.05,6.49.07-2.42,9.64-4.84,19.27-7.26,28.91h12.72c3.56-17.34,5.9-28.75,5.9-28.88,0,0,0-.08.05-.13.03-.03.08-.03.14-.03,1.4,0,2.79,0,4.19,0,1.93,0,3.86,0,5.79,0,.09,0,.14,0,.16.02.04.05,0,.16-.01.17-.07.17-2.26,10.9-5.9,28.83h11.28c3.77-13.46,7.54-26.93,11.31-40.39-10.97,0-21.94.01-32.91.02Z"/><path class="cls-3" d="m41.36,96.38c0,.66-.19,1-.59,1h-5.66c-.22,0-.41-.11-.56-.32-.13-.2-.19-.42-.19-.67v-8.96h-1.2c-.13-.23-.19-.47-.17-.7.01-.31.06-.52.13-.65h7.33c.2,0,.4.08.59.25.2.2.31.42.31.68v9.38Zm-1.33-1.04v-7.31c0-.4-.14-.61-.43-.61h-3.89v7.92c0,.46.14.68.43.68h3.56c.22,0,.34-.23.34-.68Zm13.02,2.04c-.14.08-.36.12-.66.12s-.53-.04-.67-.12v-9.32c0-.43-.09-.64-.26-.64h-2.35c-.13-.23-.19-.47-.18-.7.01-.31.06-.52.14-.65h2.96c.68,0,1.02.27,1.02.8v10.52Zm15.74-2.68c0,.84-.34,1.51-1.02,2.02-.65.49-1.49.73-2.51.73s-1.79-.25-2.4-.76-.92-1.17-.92-2v-7.29h-1.02c-.12-.19-.18-.42-.16-.7.01-.31.06-.52.13-.65h6.86c.26,0,.5.11.72.32s.32.46.32.74v7.59Zm-1.3-.57v-6.09c0-.42-.12-.62-.37-.62h-3.84v6.71c0,1.32.7,1.98,2.1,1.98.62,0,1.12-.16,1.49-.47.42-.35.62-.85.62-1.51Zm14.47,3.25c-.14.08-.36.12-.66.12s-.53-.04-.67-.12v-9.32c0-.43-.09-.64-.26-.64h-5.4c-.13-.23-.19-.47-.17-.7.01-.31.06-.52.13-.65h6.01c.68,0,1.02.27,1.02.8v10.52Zm14.32-2.6c0,.82-.12,1.43-.35,1.82-.3.52-.84.78-1.61.78h-4.89c-.13-.23-.19-.47-.18-.7.01-.31.06-.52.14-.65h4.52c.47,0,.77-.14.9-.41.09-.19.13-.6.13-1.23v-6.41c0-.37-.14-.56-.43-.56h-3.62c-.29,0-.43.19-.43.56v3.05c0,.32.12.48.37.48h2.19c.12.23.18.47.17.7-.01.31-.06.52-.13.65h-3.09c-.56,0-.84-.27-.84-.8v-4.64c0-.91.33-1.36.98-1.36h5.19c.65,0,.98.45.98,1.36v7.36Zm11.79,2.6c-.14.08-.36.12-.66.12s-.53-.04-.67-.12v-9.32c0-.43-.09-.64-.26-.64h-2.35c-.13-.23-.19-.47-.18-.7.01-.31.06-.52.14-.65h2.96c.68,0,1.02.27,1.02.8v10.52Z"/><path class="cls-2" d="m186.61,97.37c-.14.08-.37.12-.67.12s-.54-.04-.68-.12v-9.32c0-.43-.09-.64-.26-.64h-6.49c-.13-.23-.19-.47-.19-.7.01-.31.06-.52.15-.65h7.12c.69,0,1.04.27,1.04.8v10.52Zm-6.6,0c-.14.08-.37.12-.67.12s-.54-.04-.68-.12v-7.08c.15-.09.38-.14.68-.14s.52.05.67.14v7.08Zm22.15-2.68c0,.84-.35,1.51-1.04,2.02-.66.49-1.52.73-2.55.73s-1.82-.25-2.45-.76-.94-1.17-.94-2v-7.29h-1.04c-.12-.19-.18-.42-.17-.7.01-.31.06-.52.14-.65h6.98c.27,0,.51.11.73.32s.33.46.33.74v7.59Zm-1.33-.57v-6.09c0-.42-.13-.62-.38-.62h-3.91v6.71c0,1.32.71,1.98,2.14,1.98.63,0,1.14-.16,1.51-.47.42-.35.63-.85.63-1.51Zm17.31.65c0,.82-.12,1.43-.35,1.82-.31.52-.85.78-1.64.78h-4.98c-.13-.23-.19-.47-.19-.7.01-.31.06-.52.15-.65h4.6c.48,0,.78-.14.92-.41.09-.19.14-.6.14-1.23v-6.41c0-.37-.15-.56-.44-.56h-3.68c-.29,0-.44.19-.44.56v3.05c0,.32.13.48.38.48h2.23c.12.23.18.47.18.7-.01.31-.06.52-.14.65h-3.14c-.57,0-.86-.27-.86-.8v-4.64c0-.91.33-1.36,1-1.36h5.28c.66,0,1,.45,1,1.36v7.36Zm16.49-8.09c0,.31-.05.55-.15.72h-2.12v9.96c-.14.08-.37.12-.67.12s-.54-.04-.68-.12v-9.96h-4.38c-.12-.23-.18-.47-.18-.7.01-.31.06-.52.14-.65h7.94c.07.18.11.39.11.63Zm15.98,10.68c-.14.08-.37.12-.67.12s-.54-.04-.68-.12v-9.32c0-.43-.09-.64-.26-.64h-6.49c-.13-.23-.19-.47-.19-.7.01-.31.06-.52.15-.65h7.12c.69,0,1.04.27,1.04.8v10.52Zm-6.6,0c-.14.08-.37.12-.67.12s-.54-.04-.68-.12v-7.08c.15-.09.38-.14.68-.14s.52.05.67.14v7.08Z"/><path class="cls-4" d="m131.19,35.68c.34-.38.74-.77,1.19-1.21.5-.49,1.04-1.04,1.69-1.69l1.68,1.67c.46.45.88.85,1.23,1.25l8.16,8.16c.85-1.57,1.32-3.28,1.32-5.41,0-5.32-2.92-8.04-7.31-12.3-1.5-1.46-3.14-3.11-5.07-5.03-1.96,1.95-3.61,3.61-5.12,5.08-4.51,4.38-7.26,7.05-7.26,12.26,0,2.13.46,3.84,1.32,5.41,1.13,2.08,2.94,3.92,5.28,6.2.22.21.44.42.66.64,3.64,3.54,7.22,7.18,10.81,10.77l6.65,6.65,5.8,5.8,6.67,6.67c2.01-2,3.91-3.92,5.69-5.82l-6.63-6.63-5.76-5.76-6.63-6.63-5.69-5.69-5.77-5.77c-.56-.56-1.13-1.12-1.7-1.68-1.49-1.45-2.4-2.34-2.4-4.07,0-1.2.44-2,1.21-2.86h0Zm-13.77,13.77c1.29,2.12,3.04,4.11,5.18,6.3,1.08,1.11,2.27,2.26,3.54,3.5.72.71,1.47,1.44,2.24,2.22,1.72,1.72,3.59,3.6,5.69,5.69h0s6.62,6.62,6.62,6.62l5.78,5.78,6.64,6.64-3.93,3.93-15.11,15.11c-6.03-6.03-11.29-11.35-16.11-16.11l-2.93-2.93,6.64-6.64c2.09,2.07,4.29,4.27,6.63,6.62l-.02.02,5.78,5.78,5.78-5.78-.02-.02-5.76-5.76c-2.38-2.38-4.57-4.59-6.62-6.63-1.83-1.83-3.55-3.54-5.19-5.15-.18-.17-.35-.34-.53-.51-2.09-2.05-4.02-3.94-5.75-5.75-2.03-2.12-3.8-4.15-5.28-6.2-3.34-4.64-5.19-9.44-5.19-15.96,0-12.08,6.34-18.26,16.75-28.43,3.48-3.4,7.3-7.26,11.81-11.78,4.46,4.46,8.24,8.28,11.71,11.67,10.11,9.89,16.86,16.21,16.86,28.54,0,6.54-1.89,11.38-5.18,15.97l-6.73-6.73c1.62-2.67,2.53-5.57,2.53-9.28,0-8.28-4.53-12.52-11.32-19.16-2.32-2.27-4.86-4.84-7.86-7.84-3.03,3.03-5.6,5.63-7.93,7.91-6.99,6.82-11.24,10.97-11.24,19.08,0,3.71.89,6.59,2.53,9.28h0Zm16.65,55.79l15.11-15.11c-4.55,4.51-9.5,9.5-15.11,15.11Z"/></g></svg>